<svg id="Dodis" xmlns="http://www.w3.org/2000/svg" viewBox="0 0 72.28 21.26"><defs><style>.cls-1,.cls-2{fill:#231f20;}.cls-1{fill-rule:evenodd;}</style></defs><path class="cls-1" d="M4.87,18c4.18-1,6.89-3.64,6.89-7.48,0-2.56-1.19-4.71-4.26-4.71A3.13,3.13,0,0,0,4.11,9a3.08,3.08,0,0,0,3.11,2.88,4.65,4.65,0,0,0,1.85-.36,2.89,2.89,0,0,1-.14,1.24C8.3,15,7.09,16.21,4.53,17.15ZM1,20.39H7.52a8.86,8.86,0,1,0,0-17.72H1Z"/><path class="cls-2" d="M25.55,4.89c4.95,0,7.27,3.51,7.27,7.86s-2.32,7.84-7.27,7.84-7.27-3.51-7.27-7.84S20.6,4.89,25.55,4.89Zm0,12.37C27.79,17.26,28,15,28,12.75s-.25-4.53-2.49-4.53-2.49,2.24-2.49,4.53S23.46,17.26,25.55,17.26Z"/><path class="cls-2" d="M48.77,20.24H44.09V18.65A5.37,5.37,0,0,1,40,20.59c-4.28,0-5.1-4.28-5.1-8.06,0-3.36.82-7.64,5.23-7.64,1.84,0,2.81.84,4,1.86V.9h4.68ZM44.09,9.59a2.83,2.83,0,0,0-2.16-1.22c-2.19,0-2.29,2.69-2.29,4.56,0,1.36.15,4.18,2.24,4.18A3.12,3.12,0,0,0,44.09,16Z"/><path class="cls-2" d="M52,.9h4.68V4H52Zm0,4.89h4.68V20.24H52Z"/><path class="cls-2" d="M67.46,9.69C67,8.69,66.76,8,65.36,8c-1.17,0-1.59.52-1.59,1.22s1.07,1,2.47,1.42l1.59.45c2.34.65,3.63,2.11,3.63,4.45,0,4.33-3.83,5-6.35,5-4.92,0-5.77-2.94-6.19-3.86l4-1.14a2.15,2.15,0,0,0,2.19,1.76c1.07,0,1.69-.62,1.69-1.31,0-.9-.34-1.07-1.57-1.42l-2.68-.75a4.08,4.08,0,0,1-3.29-4.16c0-4.82,5.1-4.82,6.1-4.82,4.58,0,5.47,2.34,6,3.58Z"/></svg>