<?xml version="1.0" encoding="UTF-8"?> <svg xmlns="http://www.w3.org/2000/svg" width="129" height="30" viewBox="0 0 129 30"><title>B118E7F1-5E96-456B-B55D-0BECC6BB0034</title><g fill="none"><path d="M48.797 3.174v7.174h3.966v4.565h-3.966v8.565c0 1.218.929 1.348 1.73 1.348a22.8 22.8 0 0 0 2.405-.13v4.565s-2.531.26-4.05.26c-2.616 0-5.274-.434-5.274-4.26V14.913h-3.544l-1.308-4.565h4.852V3.174h5.19zM56.603 5c0-3.74 2.405-5 5.231-5 1.393 0 3.798.26 3.798.26v4.914s-1.604-.217-2.152-.217c-1.013 0-1.646.26-1.646 1.565v3.826h3.544v4.565h-3.544v14.391h-5.231V14.913h-2.87v-4.565h2.87V5zm21.011 10.652H75.42c-2.658 0-3.84 1.261-3.84 4.565v9.044h-5.189V10.348h5.063v3c.717-2.044 2.49-3.261 4.768-3.261a5.4 5.4 0 0 1 1.434.174v5.391h-.042zm.042 4.174c0-5.783 4.388-9.956 9.83-9.956 5.443 0 9.831 4.173 9.831 9.956 0 5.783-4.388 9.957-9.83 9.957-5.485 0-9.83-4.174-9.83-9.957zm5.19 0c0 2.913 1.898 5.174 4.598 5.174s4.557-2.217 4.557-5.174c0-2.956-1.899-5.174-4.557-5.174-2.7 0-4.598 2.218-4.598 5.174zm26.116-9.956c3.966 0 6.835 2.608 6.835 7.043v12.391h-5.232V18.261c0-2.391-1.477-3.391-3.122-3.391-1.519 0-2.869.87-3.882 2.13v12.26H98.33V10.349h5.105v.739c0 .652-.085 1.478-.085 1.478a7.23 7.23 0 0 1 5.612-2.695zm15.695-6.696v7.174h3.966v4.565h-3.966v8.565c0 1.218.928 1.348 1.73 1.348 1.308 0 2.405-.13 2.405-.13v4.565s-2.532.26-4.05.26c-2.616 0-5.275-.434-5.275-4.26V14.913H116.6v-4.565h2.868V3.174h5.19zm-88.095 26.13h5.991L33.313.391H26.69l-9.07 28.913h5.864l1.73-6h9.577l1.772 6zM29.896 6.565h.084l3.333 11.783h-6.75l3.333-11.783z" fill="#40476d"></path><path fill="#D21E45" d="M9.095.391L.025 29.304h5.864L14.159.348zm8.523 0L8.59 29.304h5.823L22.68.348z"></path></g></svg> 