<svg id="Layer_1" data-name="Layer 1" xmlns="http://www.w3.org/2000/svg" viewBox="0 0 453.89 333"><defs><style>.cls-1{fill:#231f20;}</style></defs><path class="cls-1" d="M107.53,148.62c11.38,4.12,20.22-6.51,24.74-17.26,3.77-8.44,4.18-15.89-2.41-26.1-7.29-10.53-8.53-12-7.83-16.8.48-3.72,3.13-5.15,5.56-4,4.25,1.91,3.94,7.08,3.67,9.84l12.59,5.93a28.22,28.22,0,0,0-.51-16.69c-2.85-7.77-8.49-13.61-13.84-16.26-9.39-4.54-19.71.08-21.81,15.3-1.62,15.37,5.71,24.84,8.45,28.7,5.3,8.15,6.7,10.28,4.62,15.31-1.45,3.51-4.65,6.69-7.3,5.6-1.43-.58-3.89-3.45-.49-12.6q-5.81-2.55-11.86-5.17c-.26.89-.52,1.77-.79,2.66C97.1,127.54,95,144.09,107.53,148.62Z"/><path class="cls-1" d="M153.48,161.33c19.69,4.57,35.86-5.92,38.28-22,3.67-16.45-4.7-40.16-17.93-48.84-13-7.17-21.9,3.44-27.28,11.55a87.66,87.66,0,0,0-7.5,14.93C131.3,135.65,134.52,156.64,153.48,161.33Zm-1.94-40c4.17-9.81,11.9-18.56,19.88-14,8.19,4.86,9.66,18.44,7.18,26.55-2,8-10,16.35-20.49,13C148.27,143.73,147.09,132.09,151.54,121.31Z"/><path class="cls-1" d="M212.58,175.18c7,1.68,12.26.82,16.18-1.52,3.81-2.11,6.28-5,6.6-12.69a125.23,125.23,0,0,0-2.1-29.95Q227,127.63,221,124.17a163.87,163.87,0,0,1,.29,32.06c-.21,3.93-.72,9.37-7.71,7.29-6.82-2.07-6.24-8.52-5.91-12.06a219,219,0,0,0,1.9-34.56q-5.43-3.75-10.72-7.57a241,241,0,0,1-4.6,37.26c-1.27,8.21-1,12.32,2.94,18.66C201.23,171.35,208.52,174.18,212.58,175.18Z"/><path class="cls-1" d="M234.94,131.92c.78,4.16,1.33,8.07,1.68,11.8q5.25,2.33,10.61,4.73c1.93,12.07.9,22.89-.19,34.14q7.16,1.89,14.2,3.88c1.17-10.29,2.13-20.14,0-31.41q5.38,2.73,10.75,5.65a76.62,76.62,0,0,0-2.79-10.07C257.5,143.91,246,137.75,234.94,131.92Z"/><path class="cls-1" d="M285,161c-4.6-3.21-9.23-6.28-13.85-9.21,5.58,15.55,4.3,26.77,2.79,38.32l14,4a92.31,92.31,0,0,0,1.28-11.68q9,4.15,17.92,8.37a45.92,45.92,0,0,1-1.33,8.5l14,4.07c1.62-4.72,3-9.33-3-19.44q-7-5.18-13.93-10.25a45.32,45.32,0,0,1,4,11.81q-9-5.09-17.91-10.08A60.66,60.66,0,0,0,285,161Z"/><path class="cls-1" d="M106.06,152.15c-7.07-2.4-17.71,3.46-22.46,18.74-4.52,16.14,1.67,24.46,4.32,27.85,6.61,7.56,8.69,9.65,8,16.46-.42,4.92-2.93,10-6.47,9.39-1.85-.32-5.71-3.23-3.89-15.49-4.16-.85-8.14-1.74-12-2.66-.24,1.09-.47,2.19-.69,3.33-2.61,13.61-.17,34.73,16.27,37.82,18,1.61,22.55-14.37,23-29.78.3-11.69-1.82-20.31-10.74-29.14-7-8.77-8-10-6.74-14.83,1-3.8,3.57-5.73,5.54-5.18,3.53,1,2.65,6,2.29,8.74,4.08.92,8.34,1.82,12.81,2.7.64-4.34,1.57-9.5.07-15.64C114.11,157.8,110.29,153.59,106.06,152.15Z"/><path class="cls-1" d="M157.11,182.3c.54-5.41,1.25-10.55,2.06-15.5-13.42-2.79-28.48-8.66-39.71-11.45,1.69,4.77-.5,14.32-1.72,20q5.2,1.06,10.78,2.09c-2.56,20.47-4.27,44.66-2.3,68.84,6.39-.78,12.73-1.65,18.95-2.52-2.77-21.22-2.28-43.17-1-63.58Z"/><path class="cls-1" d="M190.54,217.54c11.09-1.9,14-12.37,14.23-19.62.13-6.46-1.77-13.37-6.12-18.19-3.46-3.84-7.24-6-17.83-8.38-6.59-1.41-13.33-2.83-20.17-4.24-2.92,23.46-3.86,49.94.65,74.67,5.53-.51,11-.95,16.32-1.43a127.93,127.93,0,0,1-2.84-21.79H175a136.24,136.24,0,0,0,17.46,20.19l17.48-2A149.16,149.16,0,0,1,190.54,217.54Zm-10.36-11.17q-2.79-.21-5.69-.48c0-6.87.21-13.77.54-20.53l6,1c6.08,1.05,9.83,4.73,9.64,10.94C190.49,200.67,189.38,207.07,180.18,206.37Z"/><path class="cls-1" d="M241.16,223q-8.66.21-17.37.5c-.46-3-.78-6.1-1-9.22q8.47.18,16.88.42c-.27-3.71-.35-7.46-.3-11.24q-8.46-.88-17-1.71c0-2.95.11-5.89.23-8.79q8.79,1.32,17.53,2.78c.23-3.7.52-7.3.82-10.85q-15.67-3.53-31.29-7c-1.39,19.67-2.31,40,2.75,58.48,10.51-1.13,20.88-2.15,31.19-3.1A65.71,65.71,0,0,1,241.16,223Z"/><path class="cls-1" d="M275.83,201.6c.23-2.63.55-5.22.88-7.79-10.12-2.59-20.3-5.17-30.61-7.7-1.4,15.72-2.47,31.81,2.58,46.76,10.25-1,20.44-2.63,30.61-4.56a32.05,32.05,0,0,1-2.6-7.2q-8.51.73-17,1.36a67.5,67.5,0,0,1-.94-7.27q8.25,0,16.49-.06a65.71,65.71,0,0,1-.23-8.06q-8.24-.75-16.49-1.55c.05-2.23.17-4.45.33-6.66Z"/><path class="cls-1" d="M317.46,209.11c.26-1.39.6-2.75,1-4.09-11.73-3-28.14-7.39-39.81-10.64-.32,2.55-.63,5.13-.86,7.73q5.47.88,10.93,1.75c-.86,7.84-.75,15.71,3.24,22.46q7.06-1.48,14.07-3.1c-4.05-4.91-4.16-11.05-3.29-17.21C305.78,206.77,313.94,208.6,317.46,209.11Z"/><path class="cls-1" d="M333.69,135.3c-3.69-.65-7.12-1.25-9.68-.62l-.43-.62s4.66-18.66,52-50.33c.46-.31,1-1.39.16-1.91-9.23-8.73-25.82-8.12-46.2-17.3-49.57,21.21-72.35,71.77-72.8,72.26l61.58,42.13a26.86,26.86,0,0,1,14.57,28.87c-2.74,15.57-17.31,24.15-32.08,21.55-.72-.13-1.45-.29-2.17-.49L240.2,239.23c10.69,18.15,31.05,30.06,54.46,34.17,41.16,7.25,81-16.47,88.83-61C391.3,168,362.18,140.32,333.69,135.3Z"/></svg>