<svg width="44" height="46" viewBox="0 0 44 46" fill="none" xmlns="http://www.w3.org/2000/svg">
<path d="M42.355 37.927C41.605 35.337 40.575 33.397 41.165 30.697C41.615 28.697 42.095 27.287 41.705 25.137C41.1434 22.0423 39.7027 19.1748 37.555 16.877C35.055 13.927 31.845 13.247 28.465 11.637C23.665 9.347 18.645 8.297 13.695 6.407C11.2199 5.48431 8.8362 4.33265 6.57504 2.96701C5.27504 2.16701 3.34504 0.117005 1.71504 0.00700517C-2.65496 -0.232995 2.56504 5.767 3.74504 6.767C4.92504 7.767 7.25504 8.697 8.34504 9.917V10.057H8.30504L5.49504 9.11701L4.57504 8.877C2.38504 8.417 0.945044 9.287 2.51504 11.547C3.57504 13.067 5.51504 13.407 7.11504 14.017C7.49504 14.157 9.17504 14.947 10.375 15.507L11.285 15.807C11.3149 15.8178 11.3398 15.8391 11.355 15.867C11.365 15.8962 11.365 15.9278 11.355 15.957C11.3507 15.9712 11.343 15.9841 11.3326 15.9945C11.3221 16.005 11.3092 16.0127 11.295 16.017C11.2811 16.024 11.2657 16.0277 11.25 16.0277C11.2344 16.0277 11.219 16.024 11.205 16.017L11.295 16.077C9.74504 15.767 4.04504 12.767 4.85504 16.437C5.12504 17.677 10.255 20.067 11.745 20.847L12.105 20.987C12.1179 20.9909 12.1298 20.9973 12.1401 21.0059C12.1504 21.0145 12.1589 21.0251 12.165 21.037C12.175 21.0662 12.175 21.0978 12.165 21.127L12.105 21.197C12.0759 21.2069 12.0442 21.2069 12.015 21.197V21.197C10.845 21.407 5.25504 18.197 8.27504 22.707C9.05504 23.887 15.735 25.767 15.555 26.927C15.505 26.927 15.505 26.877 15.475 26.857L12.595 25.647C13.675 27.337 13.135 28.117 15.215 29.067C16.6779 29.5732 18.175 29.9742 19.695 30.267C20.245 30.417 26.515 32.507 26.355 33.017C26.195 33.527 24.215 32.107 23.575 33.137C22.575 34.787 26.285 36.697 27.395 37.287C29.825 38.577 32.725 38.797 34.975 40.447C36.555 41.617 37.555 43.447 39.235 44.447C44.635 47.887 43.195 40.947 42.355 37.927Z" fill="#73df91"/>
</svg>
