<?xml version="1.0" encoding="utf-8"?>
<!-- Generator: Adobe Illustrator 25.2.0, SVG Export Plug-In . SVG Version: 6.00 Build 0)  -->
<svg version="1.1" id="Layer_1" xmlns="http://www.w3.org/2000/svg" xmlns:xlink="http://www.w3.org/1999/xlink" x="0px" y="0px"
	 viewBox="0 0 272.6 185.6" style="enable-background:new 0 0 272.6 185.6;" xml:space="preserve">
<style type="text/css">
	.st0{fill:#E10019;}
</style>
<path d="M4.6,90.4c0-17.8,20.8-19.1,34.5-19.1h3.4v-1.5c0-6.7-5.2-10.3-12.6-10.3c-5.7,0-11,2.3-14.6,5.7l-7.2-7.2
	c6-6.2,14.6-8.8,23.3-8.8c23.4,0,23.4,16.9,23.4,24.7v31.5H42.5v-7.6h-0.3c-3.9,6.2-10.3,8.9-17.6,8.9
	C14.4,106.9,4.6,101.3,4.6,90.4 M18.3,89.4c0,5,5.1,7.2,9.6,7.2c9.4,0,13.8-4.9,13.8-12.6v-3.1h-2.9C31.3,80.9,18.3,81.5,18.3,89.4
	 M140.6,131.5V50.6h13v8.2h0.2c4-6.6,11.2-9.6,18.9-9.6c16.9,0,27,12.6,27,28.8c0,16.2-10.8,28.8-26.5,28.8
	c-10.3,0-15.7-4.8-18.6-8.3h-0.3v33L140.6,131.5 M153.8,78.1c0,8.6,6,16.4,16.1,16.4c10,0,16.1-7.9,16.1-16.4
	c0-8.6-6-16.5-16.1-16.5C159.9,61.6,153.8,69.5,153.8,78.1 M208.4,78.1c0-17.3,13.3-28.8,29.8-28.8c16.6,0,29.8,11.5,29.8,28.8
	c0,17.2-13.2,28.8-29.8,28.8C221.7,106.9,208.4,95.3,208.4,78.1 M222.1,78.1c0,8.6,6,16.4,16.1,16.4c10.1,0,16.1-7.9,16.1-16.4
	c0-8.6-6-16.5-16.1-16.5C228.2,61.6,222.1,69.5,222.1,78.1"/>
<path class="st0" d="M90.8,89.7L59.3,71.7l82.3-48.3L96.8,83.5l38.1,21.8l-99.2,56.9L90.8,89.7 M67.2,134.8l49.9-29.9L98.6,94.7
	L67.2,134.8 M76.2,71.5l12.3,7.4l23-29.2L76.2,71.5z"/>
</svg>
