    <svg id="Layer_3" data-name="Layer 3" xmlns="http://www.w3.org/2000/svg" viewBox="0 0 797.63 530.66" fill="#181a27">
  <title>bison_1</title>
  <path d="M99.19,346.46c-14-3.36-9.13-12.33-8.7-13.25.5-1.07.78-4.6-.53-4.32-9.66,2.06-9.52-12.62-9.85-14.54-.28-1.57-.89-3.05-1-2.31-4,20.36-19.88,23.31-29.36,37.46-2.52,8.89-10.29,48-12.39,58.77-1.81,9.3-13.1,36.46-22.69,55C5.64,466.1-.72,480.2.07,481.58c1.79,3.15,9.09-3,11,.39.53.93-2.9,2.82-3.23,3.7-2,5.57-8.63,21.09,14.52,33.2C43.61,530,43.87,506.39,43.49,506.61s-3.29-18.18,4-42.62c3-10,6-23.82,13.88-38.75,7.32-13.82,19.12-28,28.16-40.66,5.68-4.15,8-9.06,9.4-9.23C99.27,372.1,106.48,346.67,99.19,346.46Z"/>
  <path d="M793.32,232.19c-.87-2.43.85-8.28-3-11.83s-11.32-3.76-13-9.21c7.25,6.34,17.42,4.52,17.66,12,8.59-13.23-37.28-30.49-37.65-30.47s-3.38-22-11.86-21c-3.43.18,3.92,15,1.5,21.32-16.58.71-62.14-16.38-67.15-19.35-14.16-8.39-24.93-16.95-34.31-30.84-11-16.34-11.09-35.19-17.31-51.42-14.32-37.36-32.31-68.59-85-78.82-13.74-2.67-32.26-.27-45.41-3.46C479.58,4.72,456.66-2,430,.59A379.83,379.83,0,0,0,327.55,25.85l-2.72,1.08a45.77,45.77,0,0,0-10,3.1q-1.2.52-2.39,1.1c-9,2.06-14.66,9.37-23.35,13.22l-2.35,1.24a125.53,125.53,0,0,1-12,5.57c-20.24,8-39.79,13.63-59.91,19.1-10.36,2.82-26.82,9.23-38,8.5-12.43-.82-16.8,1.41-28,4.3-10.58,2.73-21.23,10.17-34.07,10.22-30.94.14-53,12.85-65.27,21.7-14.23,10.25-20.12,25.23-22.07,59.4C26,184,20.05,200.67,16,214.86c.25-.41.51-.82.77-1.23,1.55-2.36,3.24-4.59,4.95-6.77s3.4-4.34,5.06-6.65a28.88,28.88,0,0,1-3.26,7.85c-1.38,2.47-2.92,4.79-4.43,7.09s-3,4.59-4.32,7c-.47.84-.9,1.69-1.32,2.56a60.43,60.43,0,0,0-1.28,7.6,130.2,130.2,0,0,0,0,18.88c.2-2.31.47-4.62.81-6.92.45-2.68.95-5.36,1.64-8,.36-1.32.75-2.64,1.21-4a27.28,27.28,0,0,1,1.69-3.82,33.65,33.65,0,0,1,4.73-6.76c.9-1,1.81-2,2.62-3a6.38,6.38,0,0,0,1.52-3.57,5.34,5.34,0,0,1-.1,2,8.93,8.93,0,0,1-.79,1.93c-.66,1.22-1.47,2.32-2.2,3.44a40.09,40.09,0,0,0-3.86,6.86,39.28,39.28,0,0,0-2.28,7.47c-.56,2.58-1.06,5.19-1.44,7.82s-.77,5.27-1,7.91-.51,5.3-.7,8-.27,5.32-.21,8c0,.28,0,.55,0,.83.3,2.74.61,5.49.93,8.26l1.41-6.83,3-15.53c1.07-5.17,2-10.45,4.13-15.51a23.71,23.71,0,0,1,1.93-3.65,16.82,16.82,0,0,1,2.72-3.15,15,15,0,0,1,7.32-3.35,17,17,0,0,0-6.37,4.31,19,19,0,0,0-3.59,6.61A63.77,63.77,0,0,0,23.3,248c-.53,2.56-1,5.15-1.5,7.75s-1,5.19-1.62,7.78-1.21,5.17-2,7.73c-.91,3.25-2.11,18.3-1.65,22.56,0-.2,0-.4.08-.6.3-2.25.72-4.47,1.13-6.69l1.28-6.67a27.59,27.59,0,0,1,2.35-6.62,29,29,0,0,1,3.94-5.8,48.16,48.16,0,0,0,4.06-5.14c2.32-3.53,3-8,3.4-12.52a25.53,25.53,0,0,1,.48,6.85,17.49,17.49,0,0,1-1.86,6.83,35.76,35.76,0,0,1-4,5.69,36.75,36.75,0,0,0-3.63,5.36,33.33,33.33,0,0,0-2.45,6c-.32,1-3.37,27.49-3.1,32.68a7.62,7.62,0,0,1-.15,1.75c.45-.86.92-1.71,1.42-2.54a29.75,29.75,0,0,1,3-4.16c1.14-1.26,2.69-5.56,4.28-6.18-1.25,1.14-2.38,5.55-3.17,7s-2.83,9-4,12.07-1.56,19.1-1.56,19.1,7.54-8.3,8-10.39c.62-2.69,1.44-5.31,2.21-7.92s1.63-5.18,2.34-7.78a65.53,65.53,0,0,0,1.81-7.79c.1-.65.23-1.32.32-1.95s.13-1.31.17-2l.28-4.06c.18-2.72.9-12,2.19-15.22a25.19,25.19,0,0,0-.16,3c0,1.36,0,2.72,0,4.08l.1,8.17c0,1.37,0,2.73,0,4.11,0,.69,0,1.38-.08,2.1s-.16,1.4-.24,2.1a61.94,61.94,0,0,1-1.74,8.15c-1.53,5.31-3.47,10.4-5.14,15.53q-.49,1.57-.94,3.14c4.9-5.9,17.2-24.07,17.65-38.37.06-1.13.07-2.25,0-3.35a19.91,19.91,0,0,0-.46-3.25,67.87,67.87,0,0,0-2-6.57,89.38,89.38,0,0,1-3.71-13.67,24.81,24.81,0,0,1-.19-7.23,10.34,10.34,0,0,1,3.17-6.37A11.2,11.2,0,0,0,40,261.16a28.89,28.89,0,0,0,1,6.7c.57,2.21,1.22,4.41,2,6.6l2.24,6.62C45.86,283.33,47,288,47,288s4.58-12.78,1.13-23.27c-.34-1-.71-1.89-1-2.87a48,48,0,0,1-2.07-11.92A34.29,34.29,0,0,1,46.55,238a70.26,70.26,0,0,0,.7,11.72,74.87,74.87,0,0,0,2.57,11.31q.81,2.78,1.89,5.48c.32.92.69,1.81,1.08,2.7S53.57,271,54,271.9s.83,1.75,1.26,2.62c.58-2.45-1.68-13.77-2.09-15.82a27.45,27.45,0,0,1-.53-6.2,21.3,21.3,0,0,1,1-6.14c.47,2,.79,4,1.15,6s.69,3.89,1.08,5.81.8,3.83,1.31,5.7l0,.13a86.89,86.89,0,0,0,.86-13c-.28-20.35-22.39-52.07-20.44-73.11,1.15-12.42-1.74-17.2,6.32-33a75.93,75.93,0,0,1,8.86-6.9c.33,0-14.07,14.26-4.11,65.12C52,228.33,77.35,281.75,78.53,306.67c-.08,1.61.58,1.69.84,2.54.57,1.85,1,3.72,1.58,5.55s1.07,3.65,1.77,5.37a17,17,0,0,0,2.58,4.67,5.51,5.51,0,0,0,4,2.18,10.24,10.24,0,0,0,4.82-1.27c.2-.09.4-.21.6-.31l.35-.19a2.64,2.64,0,0,1,.71-.26,1.66,1.66,0,0,1,.5,0,1.46,1.46,0,0,1,1.31,1.36,1.66,1.66,0,0,1,0,.43,2.71,2.71,0,0,1-.23.68,7.83,7.83,0,0,1-.43.76c-.56.89-1.14,1.66-1.71,2.45l-1.72,2.31A15.44,15.44,0,0,0,92,335.12c-.72,1.43-.41,2.44,1,3.47a19.79,19.79,0,0,0,4.89,2.25c.9.32,1.81.62,2.76,1a4.86,4.86,0,0,1,1.55.91,6,6,0,0,1,1.09,1.36A16.16,16.16,0,0,1,105,350a59.88,59.88,0,0,1,.28,11.67c-.21,3.29-3.25,25.13-3.27,32.59s2.2,11.12,5.28,15.42c9.59,8.53,11.46,13.82,19,27.8,12.87,16.12,21.07,37.33,31.33,55.39,8.58,11.4,4.64,19.05,9.7,23.4,6.89,5.93,20,13.69,29.4,12.8,20.49-1.95,19.88-6.14,19.08-13.25-1.87-8.2-9.63-11.58-22-22.15-11.13-9.52-21.1-24.08-26.1-33.89-14.91-31.87-13.86-55.27-11.49-81.84,1.88-21.17-6.49-39.55,2.53-71.31,3.61-2.61,9.14-5.39,11.6-4.71,5.91,7.1,15.31,17.12,16.24,18,1.61,1.6,21,22.46,35.59,33.79,6.67,5.19,3.81,12.83,9.53,19.16,0-.07,0-.14,0-.21a6.8,6.8,0,0,1,.27-2.58c2.29,1.28,2.92,6.23,6.93,8.41-2.68-5.91-.47-6.61-1.29-9.69,1,1.28,2.12,8.58,8.73,12.46-2.56-2.57-1-7.38-2.64-9.81,1.28,1.48,5.1,11.06,10.4,10.88-4.66-2.81-2.54-6.27-4-8.91,1.08.67,1.94,5.14,5.4,2.93-2.77,1.36-4.9-6.74-8.46-17.08-.9-2.6-.14-8.72,1.66-8,14.57,6,75.36,1.08,114.7-5.64,10.22,2.14,20.11,4.61,28.11,6.89l1.81.52a11.6,11.6,0,0,0,1.48.58c.56.18,1.18.35,1.81.51l1.93.48a16.3,16.3,0,0,1,1.86.59,6.49,6.49,0,0,1,1.57.86,6.32,6.32,0,0,1,1.12,2.64,2.76,2.76,0,0,1-.4,1.88,5,5,0,0,1-1.43,1.38c-.59.41-1.27.79-2,1.18a14.06,14.06,0,0,0-2,1.32,5.52,5.52,0,0,0-1.51,1.92q-.82.66-1.61,1.36a38.51,38.51,0,0,0-4.36,4.62L388.46,374a29.71,29.71,0,0,1-4.49,4.42,8.25,8.25,0,0,0-3,7.29c-.51.7-1,1.35-1.44,2-3.94,5.75-3.65,12.81-4.22,18.72-.13.61-.23,1.22-.3,1.84a15.52,15.52,0,0,0,.28,5.51,10.85,10.85,0,0,1,6.95-2.87c-2.33,1.45-3.75,4-4.66,6.59s-1.41,5.31-2.46,7.85l9.73-5.58-3.55,12.88a11.24,11.24,0,0,1,5.87-2.65,68.76,68.76,0,0,0-1.08,17.31l3.27-1.94a30.44,30.44,0,0,1-1.79,11.84,40.91,40.91,0,0,0,11.13-4.9,2.37,2.37,0,0,0-.14,1.8,8.08,8.08,0,0,0,2.69-.86l-.12.38c5.16,2.6,10.36-4.06,13.79-1,4.83,4.34-14.22,42.53-8.86,57.36,1.32,3.65,21.4,12.46,21.84,12.48,22.52,1,29.41-2.74,31.4-7.31,1.54-3.54-13.15-15-16.34-24.32-5-14.66-2.53-26.41-2.45-32.58,3.78-5.22,3.89-5.15,10.62-15.73a37.5,37.5,0,0,0,4.71-12.25c.18-.87.32-1.73.43-2.58s.19-1.67.24-2.44a20.74,20.74,0,0,0,0-2.2,13.91,13.91,0,0,0-.23-2c0-.09,0-.18-.06-.27a11.88,11.88,0,0,0-1.69-2.64,6.35,6.35,0,0,0-2.84-1.92,9.62,9.62,0,0,0-3.47-.34c-1.19.05-2.4.22-3.68.17a5.25,5.25,0,0,1-3.54-1.37c-.61-.36-1.19-.75-1.76-1.15l0,0h0a15.58,15.58,0,0,1-3.16-3.81,11.56,11.56,0,0,1-1.56-4.67,15.14,15.14,0,0,0-5.48-7.85,92.65,92.65,0,0,0-8.42-5.66h0a.88.88,0,0,1-.21-.19c-.84-1.06-1.67-2.12-2.43-3.23a36.84,36.84,0,0,1-2.15-3.46,23.42,23.42,0,0,1-2.62-7.7,23.83,23.83,0,0,0-3-7.22,47.79,47.79,0,0,1-3.59-7.48c-1-2.52-2-5-3.21-7.39a20.7,20.7,0,0,0-4.64-6.25l0,0a.64.64,0,0,1-.11-.12,35.88,35.88,0,0,0-2.8-3.63c-1-1.16-2.09-2.32-3.06-3.59a12.75,12.75,0,0,1-2.28-4.29,8.53,8.53,0,0,1,.15-4.84c.19-1.08.41-2.18.58-3.25a15.41,15.41,0,0,0,.23-3.27l-.12-3.33c-.07-.55-.1-1.1-.2-1.65l-.35-1.63.48,1.6c.14.54.22,1.1.33,1.65.14,1.12.21,2.22.32,3.33a16,16,0,0,1,0,3.38c-.11,1.13-.27,2.21-.4,3.32v.05a7.85,7.85,0,0,0,.07,4.35,11.64,11.64,0,0,0,2.24,3.82c1,1.17,2.06,2.26,3.13,3.41a37.67,37.67,0,0,1,3,3.61A21.52,21.52,0,0,1,405,354c1.32,2.45,2.36,5,3.41,7.49a49.41,49.41,0,0,0,3.5,7.17,25.86,25.86,0,0,1,3.24,7.76,1.11,1.11,0,0,1,0,.11,21.55,21.55,0,0,0,2.39,7.15,34.93,34.93,0,0,0,2,3.28c.7,1,1.47,2,2.23,3a90.71,90.71,0,0,1,8.35,5.84,19.34,19.34,0,0,1,3.61,3.92,14.44,14.44,0,0,1,2.18,4.92v0a.71.71,0,0,1,0,.1,12.4,12.4,0,0,0,4,7.86c.53.4,1.07.8,1.62,1.15h0l.08.07a4.29,4.29,0,0,0,2.94,1.24c1.15.09,2.36,0,3.59,0a10.35,10.35,0,0,1,3.72.49,7,7,0,0,1,3,2.2,12.6,12.6,0,0,1,1.73,2.95c.06.12.13.23.19.35.32.65.59,1.32.88,2a17.65,17.65,0,0,0,.92,1.87,6.35,6.35,0,0,0,1.24,1.56,4.41,4.41,0,0,0,1.83,1,6.86,6.86,0,0,0,2.69.1,1.94,1.94,0,0,1-.39-2.24,4.15,4.15,0,0,1,1.81-1.44,23.16,23.16,0,0,1,2.29-1,8.53,8.53,0,0,1,1.12-.36,7.51,7.51,0,0,0,.53,1.84,7.81,7.81,0,0,0,.92,1.56,8.87,8.87,0,0,0,1.25,1.34,8.2,8.2,0,0,0,1.51,1.06,7.86,7.86,0,0,0,1.67.68,7.44,7.44,0,0,0,5.15-.4c-5.05-2.13-.88-3.42-1.75-8.93,5.71,7.75,2,14.92,17.5,17.8-1.5-1.28-9.44-6.81-.76-11,2.75,5,2.31,11.39,16.74,17.31-2.22-2.67-5.07-7.82,1.68-8.49-.23,1.42-.34,15.86,13,16.09-8.69-6,.25-9.51.6-9.64,2.22,2.84-2.49,6.75,3.93,11.11-1.6-1.95,1.27-7.62,10.47-1.46,2.49-.55,5.65,2.72,7,6.19,9.44,22.54,3.54,23.81,2.66,32-.71,6.61,5.69,6.65,7.66,11.65,3,7.74.09,15.16,10.33,23.69,6,5,13.76,3.73,20.35,5.54,2.45.67,21.15-.54,24-2.65,5.2-3.88-2.08-20.29-3.58-24.64-2-5.89-17.55-18-17.81-22.81-1.1-20.69-24.08-28.56-28-48.89.38-6.35,3.42-27.15-8.21-41,0,0,27.08-.61,30.08-10.9,5.18,3,4.64,7.46,15.85,4.87,9-2.08,12.53-.41,19.72,6.05,5.22,4.7,2.83,11,12.56,16.41-2-4.07.38-7.53-1.91-12.13,6.1,7,2,11.27,7.74,15.14-1.41-4.81,1.3-4.4.64-7.94,8.3,8.11-2,10.37,9.2,19.28-4.26-8.38-.53-9.9-.86-16.43.89,2.1,1.51,1.77,3.12,7.53s-3.75,8.73,5.18,19.05c-2.38-8.17,1.07-8.25-.34-13.93,6.49,5.84.8,12.67,6.84,18.79-1-4,3-5.09.39-10.1,6.11,4.11-.14,10.21,7.91,16-2.67-5.73,1.41-5.55,1.47-8.82,2,3.77-.23,10.25,6,15.87-1.54-5.32,1.2-3.89,1.22-7.45.81.81.33,11.91,10.27,14.25-9.64-9.24-4-11.15-2.76-16.74-.28,3.31.84,11.63,11.12,14.78-11.14-12.78-.68-10.07-2.77-17.22,4.42,1.79-1.61,11.17,9.53,12.92-4.68-5.6-1-12.43-3.57-19.55,4.27,3.41-.9,20.28,13.6,18.89-10.81-3.36-6.47-12.79-7-14.63,1.09,4.43,5.26,4.88,7.83,2.85-5.75-.13-.8-3-4.75-5.6-3-2,.74-4,3-6.18a.3.3,0,0,0-.24-.51c-14.6,2.28-18.39-9.84-18.59-11.42,2,1.32,8.66,11.56,25,9.4,9.13-2.61,22.45-10.87,28-17.79,11.56-14.43,3-19.1,4.48-29.94,1.37-17.93,6.76-16.19,7.66-26.21.69-7.78-3.38-12.57-2-19.58,1.54-7.94,6.83-7.34,10.44-10.59,3.3-6.9,8-15.62,14.19-22.47,2.17-2.41,1.79-8,3.6-11.43,8.18-15.44,1.12-17.07.35-31.49-.15-2.84.6-4.38,1.73-5.27a10.07,10.07,0,0,1-.83-.72,22.85,22.85,0,0,1-3.19-4.21c-1.81-3-3.38-6.06-5.06-9-3.34-5.94-7.19-11.59-12.4-15.73a36.7,36.7,0,0,0-18.19-7.61,78.91,78.91,0,0,0-20.44.21,57,57,0,0,1,20.69-2.36A38.83,38.83,0,0,1,761.05,211a34.49,34.49,0,0,1,9.3,5.31,40.61,40.61,0,0,1,7.28,7.79,62.54,62.54,0,0,1,5.3,9.09c1.54,3.12,2.89,7.23,5.58,9.32C793.76,246.63,803.17,249.52,793.32,232.19ZM307.13,57a1.17,1.17,0,0,1-.36.26h0l-2.36,1.11L302,59.55A24.49,24.49,0,0,1,297,61.27c-1.2.53-2.37,1.09-3.61,1.55a38.08,38.08,0,0,1-3.8,1.21c-1.34.54-2.65,1.12-4.06,1.54l-.54.16c-.2.06-.42.11-.59.15l-1.11.23c-.69.13-1.4.23-2.1.3-1.43.38-2.87.75-4.29,1.18s-2.9.87-4.35,1.31l-.15,0h0l-3.17.58c-1.13.15-2.1.28-3.16.47-2.07.35-4.13.84-6.18,1.36h0l-.09,0c-1.6.26-3.2.48-4.82.83s-3.28.56-4.92.78c-3.28.45-6.57.73-9.82,1.09a97.46,97.46,0,0,0-9.69,1.46,47.39,47.39,0,0,0-4.73,1.26,33.06,33.06,0,0,0-4.57,1.81,36.82,36.82,0,0,1,9.08-3.95,82.81,82.81,0,0,1,9.7-2.13L249.69,71c1.61-.28,3.2-.6,4.79-1s3.18-.7,4.8-1c2.07-.58,4.16-1.13,6.3-1.54,1.05-.21,2.2-.4,3.19-.55l3-.6c1.43-.45,2.85-.91,4.3-1.33s2.95-.84,4.43-1.25l.16,0h0q1-.11,2-.31l1-.22.45-.11.49-.15c1.31-.38,2.59-.94,3.88-1.45l.06,0,.15,0a35.27,35.27,0,0,0,3.64-1.13c1.2-.43,2.36-1,3.55-1.49l.06,0,.24-.08A24.32,24.32,0,0,0,301,57.2l2.34-1.11,2.22-1a51.35,51.35,0,0,1,7.4-6.56,19.28,19.28,0,0,1,9.61-3.78h.24a13.12,13.12,0,0,0,4.16.2,28,28,0,0,0,4.24-.83c1.42-.36,2.86-.77,4.34-1a14,14,0,0,1,4.5-.08h0a2.23,2.23,0,0,1,.92.18,3.39,3.39,0,0,1,.75.5c.45.38.86.79,1.28,1.19-.46-.35-.92-.71-1.4-1a2.15,2.15,0,0,0-1.54-.45h0a13.76,13.76,0,0,0-4.3.45c-1.4.36-2.78.84-4.19,1.31a28,28,0,0,1-4.37,1.17,14.71,14.71,0,0,1-4.47,0,18.27,18.27,0,0,0-8.46,3.84A57.45,57.45,0,0,0,307.13,57Zm47.45,204.39a20.29,20.29,0,0,1-2.06-2.82,11.1,11.1,0,0,1-1.32-3.3v.06a45.49,45.49,0,0,1-1.54-7.11l-.59-3.56-.49-3.39c-2.38-4.57-5.43-8.79-8.3-13.21a69.3,69.3,0,0,1-4-6.94,32.22,32.22,0,0,1-2.76-7.72,1.16,1.16,0,0,1,0-.25v0l.12-6.51c-1.43-2.91-2.77-5.88-4-8.94a60.53,60.53,0,0,1-2.93-9.77,38.27,38.27,0,0,1-.71-10.29,34.08,34.08,0,0,1,2.14-9.67c-.77-3-1.42-6-2.17-9.06a5.86,5.86,0,0,1-.19-1.28c0-.44-.08-.89-.1-1.33a19.41,19.41,0,0,1,.19-2.59,25.12,25.12,0,0,1,1.24-4.9c1.11-3.11,2.52-6,3.29-9a13.73,13.73,0,0,0-.42-8.86l0-.06a.53.53,0,0,1,0-.09l-.51-2.7-.25-1.35-.19-1.36c-.11-.91-.3-1.81-.33-2.73l-.16-2.76V120a12.17,12.17,0,0,1,.36-5.43,45.25,45.25,0,0,1,1.81-5,31.7,31.7,0,0,0,1.65-4.91,11.28,11.28,0,0,0,.07-5.15,11.48,11.48,0,0,1,.32,5.22,30.56,30.56,0,0,1-1.39,5.08,44.56,44.56,0,0,0-1.5,5,11,11,0,0,0-.07,4.93v.11l.29,2.66c.06.89.29,1.76.43,2.65l.24,1.32.3,1.31.59,2.56a15.36,15.36,0,0,1,.79,10c-.76,3.29-2.11,6.27-3.08,9.24a22.77,22.77,0,0,0-1.05,4.46,17,17,0,0,0-.13,2.22l.1,1.07a4.49,4.49,0,0,0,.18,1.1l2.38,9.29a1.32,1.32,0,0,1,0,.81h0a31.4,31.4,0,0,0-2.06,9.3,36.77,36.77,0,0,0,.7,9.56c1.25,6.35,3.85,12.43,6.68,18.38v0a1.25,1.25,0,0,1,.12.57L336,213a29.94,29.94,0,0,0,2.4,7.05,74.5,74.5,0,0,0,3.74,6.82c2.72,4.47,5.72,8.88,8,13.76l0,.05a.54.54,0,0,1,0,.17l.38,3.62L351,248a44.74,44.74,0,0,0,1.1,7v.06a13.35,13.35,0,0,0,2.9,6,41.54,41.54,0,0,1,4,5.63A45.58,45.58,0,0,0,354.58,261.36Zm319.53-80.7a12.77,12.77,0,0,1,6.56,1.37,18.35,18.35,0,0,1,5.23,4.17c1.47,1.61,2.74,3.32,4.07,4.91,2.54,3.24,5.43,6,9.23,7s8,.47,12.18-.35a26,26,0,0,1-6,2.23,17.08,17.08,0,0,1-6.62.24,14.64,14.64,0,0,1-6.22-2.73,27.7,27.7,0,0,1-4.68-4.68c-1.33-1.69-2.58-3.37-3.88-4.93a18.69,18.69,0,0,0-4.33-4,12.54,12.54,0,0,0-5.53-1.89,26.2,26.2,0,0,0-6.22.23A18.63,18.63,0,0,1,674.11,180.66Zm27,83.77a33.06,33.06,0,0,1-4.19-11.9,29.12,29.12,0,0,1-.14-6.44c0-.53.11-1.07.16-1.6l.25-1.57c.16-1.05.36-2.07.55-3.09a36.44,36.44,0,0,0,1-11.9,48.41,48.41,0,0,0-3.27-11.75,29.54,29.54,0,0,1,5.39,11.42l.32,1.6c.07.54.08,1.08.12,1.62s.1,1.09.07,1.63l-.06,1.62a11.13,11.13,0,0,1-.14,1.61l-.21,1.59-.55,3.1a48.74,48.74,0,0,0-1.38,12A60.08,60.08,0,0,0,701.13,264.43ZM668,193.82a10.81,10.81,0,0,1,4.18,2.24,10.48,10.48,0,0,1,2.77,4,16.55,16.55,0,0,1,1.16,4.58,36.34,36.34,0,0,1,.23,4.59c0,3-.36,6-.61,9s-.59,5.85-.68,8.74a33.42,33.42,0,0,0,.63,8.5,15.53,15.53,0,0,0,3.8,7.38,20.63,20.63,0,0,0,7.27,4.69,18.1,18.1,0,0,1-8.2-3.7,16.08,16.08,0,0,1-5-7.81,31.62,31.62,0,0,1-1.17-9.11c0-3,.28-6,.54-9s.63-5.87.75-8.75a23.54,23.54,0,0,0-.79-8.34,9,9,0,0,0-5.39-5.7,25.45,25.45,0,0,0-8.55-1.58A21.4,21.4,0,0,1,668,193.82Zm-10,25.15a49.59,49.59,0,0,0,1.95,6.56,19.19,19.19,0,0,1,1.26,7.41,7.83,7.83,0,0,1-.44,2c-.15.32-.29.63-.47.93a6.45,6.45,0,0,1-.62.82,6.07,6.07,0,0,1-3.35,1.77,7.7,7.7,0,0,0,2.24-2.55,5.45,5.45,0,0,0,.48-3,33.29,33.29,0,0,0-1.73-6.52,23,23,0,0,1-1.46-7.3,6.52,6.52,0,0,1,1.21-3.86,5.37,5.37,0,0,1,3.3-1.89,6.34,6.34,0,0,0-2.14,2.59A6,6,0,0,0,657.94,219Zm-60.6,40a8.94,8.94,0,0,0-3.62,3.86,26.25,26.25,0,0,0-2,5.24c-.52,1.84-1,3.73-1.45,5.65a57.11,57.11,0,0,1-1.77,5.76,16.89,16.89,0,0,1-3.2,5.41,9.55,9.55,0,0,1-2.57,2l-.73.37-.77.25a6.7,6.7,0,0,1-1.55.35,13.25,13.25,0,0,1-6-.76,16.9,16.9,0,0,0,5.71-.57,8.39,8.39,0,0,0,4.26-3,17.14,17.14,0,0,0,2.38-4.92c.61-1.78,1.09-3.65,1.56-5.55,1-3.76,1.9-7.77,4.26-11.33a12,12,0,0,1,2.12-2.4c.43-.33.88-.64,1.33-.92a10.78,10.78,0,0,1,1.47-.66,10.62,10.62,0,0,1,6.06,0A12.45,12.45,0,0,0,597.34,258.94Zm-23.69-3.15c2.92-.75,5.77-1.65,7.75-3.43a9.88,9.88,0,0,0,2.32-3.16,35,35,0,0,0,1.48-4,19.69,19.69,0,0,1,1.9-4.34A8,8,0,0,1,591,237.6a10.85,10.85,0,0,1,4.76-.63,18.45,18.45,0,0,1,4.48.93c-1.51.14-3,.16-4.42.43a11.56,11.56,0,0,0-3.9,1.23c-2.29,1.22-3.15,3.74-4.07,6.56a24.79,24.79,0,0,1-1.79,4.32,10.68,10.68,0,0,1-3.33,3.66A13.13,13.13,0,0,1,573.65,255.79Zm30.92-52.45a8.86,8.86,0,0,0-3.72,3.16c-2,2.76-3.54,6-5.43,9.19s-4.1,6.37-7.45,8.49a11.29,11.29,0,0,1-5.54,1.75,12.83,12.83,0,0,1-5.48-1.08,17.16,17.16,0,0,0,5.3-.27,11.17,11.17,0,0,0,4.48-2.18c2.62-2.09,4.47-5.09,6.3-8.14s3.56-6.33,6.17-9.17a13.52,13.52,0,0,1,2.22-1.92,8.2,8.2,0,0,1,2.77-1.15,7.38,7.38,0,0,1,5.48,1.19A8,8,0,0,0,604.56,203.33Zm37.24,71C599,268.6,610.06,225.42,626,200.22c4.78-7.56,23-28.5,30.16-27.74,4.14.37-3,8.84-3,8.73-35.7,57-8.16,69.77,5.59,69.57C669.55,250.62,652.82,275.76,641.81,274.29Zm15.91,15.27a25.21,25.21,0,0,1,12.8-5.61,18.36,18.36,0,0,1,7.26.75,24.14,24.14,0,0,1,6.46,3.3c3.9,2.81,7,6.3,10.13,9.58a40.46,40.46,0,0,0,5,4.53,11.93,11.93,0,0,0,6.14,2.49,10.82,10.82,0,0,1-6.85-1.34,31.42,31.42,0,0,1-5.72-4.12c-3.51-3-6.64-6.36-10.25-8.88a19.92,19.92,0,0,0-12-4.15C666.27,286.17,661.93,287.71,657.72,289.56Zm28.79,31.12a18.25,18.25,0,0,1-8.54.57,19.76,19.76,0,0,1-7.94-3.12,14.39,14.39,0,0,1-3.18-2.88,6.66,6.66,0,0,1-1.6-3.91,8.13,8.13,0,0,0,2.56,2.94,19.19,19.19,0,0,0,3.3,2,28,28,0,0,0,7.3,2.25A23,23,0,0,0,693.47,316,14.35,14.35,0,0,1,686.51,320.68ZM683.43,312a45.41,45.41,0,0,0,5.73-.24,12.72,12.72,0,0,1-5.61,2.41,10.81,10.81,0,0,1-6.34-.88,11,11,0,0,1-4.71-4.34,10.87,10.87,0,0,1-1.56-5.92,25.9,25.9,0,0,0,3.31,4.63,13.62,13.62,0,0,0,4.14,3.12A13.24,13.24,0,0,0,683.43,312Zm-4.86-5.59a3,3,0,1,1,3.19,2.87A3,3,0,0,1,678.57,306.42Zm12-.24a69.3,69.3,0,0,0-8.43-5.81,16.06,16.06,0,0,0-9.32-2.06,18.23,18.23,0,0,0-4.85,1.17,42.41,42.41,0,0,0-4.77,2.14,20.13,20.13,0,0,1,6.61-4.63,17.06,17.06,0,0,1,2.67-.82,14.78,14.78,0,0,1,5.66-.12,17.82,17.82,0,0,1,5.31,1.87,40.52,40.52,0,0,1,8.51,6.6,50.12,50.12,0,0,0,3.86,3.39,6.16,6.16,0,0,0,4.65,1.55,4.54,4.54,0,0,1-2.68.45,9,9,0,0,1-2.66-.83A30,30,0,0,1,690.61,306.19Zm14,84.42a25.89,25.89,0,0,0-1.11,5.49,47.2,47.2,0,0,0-.13,5.8,22.17,22.17,0,0,1-.85-11.87,16.73,16.73,0,0,1,2.39-5.75,15.12,15.12,0,0,1,4.58-4.41,13.76,13.76,0,0,1,6.1-1.94,13,13,0,0,1,11.07,5,15.23,15.23,0,0,1,2.66,5.34c-2.08-3.32-4.9-6.06-8.31-7.21a11.86,11.86,0,0,0-10.09,1.13A15,15,0,0,0,704.56,390.61Zm10.31-155.25a28.73,28.73,0,0,0-4.74-6.06,22.28,22.28,0,0,1,5.88,5.32,17.24,17.24,0,0,1,3.19,7.49,24.6,24.6,0,0,1-.11,8.16,60.24,60.24,0,0,1-2,7.74c-.82,2.5-1.69,4.95-2.45,7.39a39.36,39.36,0,0,0-1.72,7.35,15.26,15.26,0,0,0,.77,7.27,17.7,17.7,0,0,0,4.39,6.2,14.17,14.17,0,0,1-7.32-13.61c.22-5.51,2.18-10.52,3.69-15.44a64.82,64.82,0,0,0,2-7.37,25.45,25.45,0,0,0,.55-7.4A17.4,17.4,0,0,0,714.87,235.36ZM739.4,402.82c0-1.24-.46-2.62-1.53-3a5.54,5.54,0,0,0-3.41.31,28.78,28.78,0,0,0-3.4,1.45c-1.13.56-2.2,1.15-3.45,1.7-.16.07-.33.14-.53.2a2.88,2.88,0,0,1-.37.09,1.82,1.82,0,0,1-.55,0,5,5,0,0,1-1.18-.29,3.73,3.73,0,0,1-2-1.75,6.48,6.48,0,0,1-.64-2.23c-.09-.7-.12-1.35-.17-2a5,5,0,0,0-.71-2.76,1.82,1.82,0,0,0-.95-.48,1.44,1.44,0,0,0-1,.06,3.24,3.24,0,0,0-1.38,2.09,9.59,9.59,0,0,0-.28,3.29,10.55,10.55,0,0,0,2.38,6.21,7.5,7.5,0,0,0,6.06,2.48,20.14,20.14,0,0,0,7.18-1.8,16.59,16.59,0,0,1-7.05,3.2,9.9,9.9,0,0,1-4.11-.2,8.85,8.85,0,0,1-3.67-2.14,10.62,10.62,0,0,1-2.37-3.49,13.68,13.68,0,0,1-1.06-4,12.24,12.24,0,0,1,.3-4.24,7.42,7.42,0,0,1,.91-2.13,4.51,4.51,0,0,1,2-1.75,4.19,4.19,0,0,1,2.73-.19,4.49,4.49,0,0,1,2.32,1.33,5,5,0,0,1,1.08,2.33,13.32,13.32,0,0,1,.18,2.1,9.37,9.37,0,0,0,.37,3.25,1.5,1.5,0,0,0,.74.79,2.8,2.8,0,0,0,.65.22c-.25,0,.15,0,.38-.1a48,48,0,0,1,7.26-2.46,10.27,10.27,0,0,1,2-.2,4,4,0,0,1,2,.48,2.55,2.55,0,0,1,1.21,1.68A5.37,5.37,0,0,1,739.4,402.82Zm19.8-176.25a30.9,30.9,0,0,1,10.27,5,24.88,24.88,0,0,1,7.37,8.93,35,35,0,0,1,3.12,11.1c.86,7.62,0,15.14-.84,22.49-.41,3.68-.89,7.35-1,11a25.07,25.07,0,0,0,.38,5.44,9.63,9.63,0,0,0,2.32,4.88,9.36,9.36,0,0,1-3.07-4.68,24.37,24.37,0,0,1-1-5.6,90.37,90.37,0,0,1,.17-11.23c.2-3.72.52-7.4.6-11.07a69.75,69.75,0,0,0-.36-10.9,33.33,33.33,0,0,0-2.73-10.3,24,24,0,0,0-6.35-8.38,32.33,32.33,0,0,0-9.35-5.35,65.26,65.26,0,0,0-10.67-2.95A48.36,48.36,0,0,1,759.2,226.57Zm1.28,15.77a37.39,37.39,0,0,1,5.63,11.57,33,33,0,0,1,.9,12.93,40.37,40.37,0,0,1-1.37,6.35c-.63,2-1.21,4-1.76,5.95a105.41,105.41,0,0,0-2.66,12.07,39.93,39.93,0,0,0-.3,12.19,12.25,12.25,0,0,0,2.21,5.53,8.68,8.68,0,0,0,5.14,3.09,8.65,8.65,0,0,1-5.72-2.59,13,13,0,0,1-3-5.74,37.76,37.76,0,0,1-.52-12.75,89.2,89.2,0,0,1,2.27-12.47c.51-2,1.1-4.07,1.72-6.09a38.26,38.26,0,0,0,1.21-5.89,31,31,0,0,0-.68-11.91,37.81,37.81,0,0,0-4.88-11,46.12,46.12,0,0,0-18.27-16.2A40.82,40.82,0,0,1,760.48,242.34Zm-17.09-5.12a14.55,14.55,0,0,1,3.69,5.35,22.06,22.06,0,0,1,1.46,6.31,47.22,47.22,0,0,1,.06,6.35c-.14,2.09-.34,4.15-.56,6.19s-.43,4.06-.58,6.07a26.83,26.83,0,0,0,.18,6,12,12,0,0,0,2.28,5.51,10.48,10.48,0,0,1-3.6-5.18,22.31,22.31,0,0,1-1-6.31c-.17-4.23.33-8.35.53-12.4a51.74,51.74,0,0,0,.1-6,24,24,0,0,0-.88-5.78,15,15,0,0,0-2.65-5.14,19.78,19.78,0,0,0-4.51-4A15.18,15.18,0,0,1,743.4,237.22Zm-7.88,42.59a35.12,35.12,0,0,0,7.12,9.1,30.46,30.46,0,0,1-8.29-8.41,34.31,34.31,0,0,1-4.59-11,62.91,62.91,0,0,1-1.45-11.83c-.15-4-.07-7.88-.09-11.76a88.11,88.11,0,0,0-.52-11.52,28.66,28.66,0,0,0-3.27-10.69,22.62,22.62,0,0,0-7.76-8,47,47,0,0,0-10.58-4.73,38.6,38.6,0,0,1,11.26,3.56,22.92,22.92,0,0,1,8.93,8.07,29.14,29.14,0,0,1,4,11.43,84.55,84.55,0,0,1,.7,11.89c0,3.93-.12,7.83-.06,11.69a70.56,70.56,0,0,0,.95,11.47A36.13,36.13,0,0,0,735.52,279.81Z"/>
</svg>
