<svg width="500" height="500" viewBox="0 0 2470 1827" fill="none" xmlns="http://www.w3.org/2000/svg">
<g filter="url(#filter0_d_340:2)">
<path d="M98 769L1353.5 491.5C1249.83 343.333 1218.1 38.1 1920.5 2.49998C2798.5 -42 2376 769 2276 947C2176 1125 1453.5 880 1231.5 947C1009.5 1014 965 1947 365 1802.5C-115 1686.9 -13 1065.33 98 769Z" fill="#C4C4C4"/>
<path d="M98 769L1353.5 491.5C1249.83 343.333 1218.1 38.1 1920.5 2.49998C2798.5 -42 2376 769 2276 947C2176 1125 1453.5 880 1231.5 947C1009.5 1014 965 1947 365 1802.5C-115 1686.9 -13 1065.33 98 769Z" stroke="black"/>
</g>
<defs>
<filter id="filter0_d_340:2" x="0.838501" y="0.236816" width="2469.08" height="1825.94" filterUnits="userSpaceOnUse" color-interpolation-filters="sRGB">
<feFlood flood-opacity="0" result="BackgroundImageFix"/>
<feColorMatrix in="SourceAlpha" type="matrix" values="0 0 0 0 0 0 0 0 0 0 0 0 0 0 0 0 0 0 127 0" result="hardAlpha"/>
<feOffset dy="4"/>
<feGaussianBlur stdDeviation="2"/>
<feComposite in2="hardAlpha" operator="out"/>
<feColorMatrix type="matrix" values="0 0 0 0 0 0 0 0 0 0 0 0 0 0 0 0 0 0 0.25 0"/>
<feBlend mode="normal" in2="BackgroundImageFix" result="effect1_dropShadow_340:2"/>
<feBlend mode="normal" in="SourceGraphic" in2="effect1_dropShadow_340:2" result="shape"/>
</filter>
</defs>
</svg>
