<?xml version="1.0" encoding="utf-8"?>
<svg width="1366" height="1024" viewBox="-683 -512 1366 1024" xmlns="http://www.w3.org/2000/svg">
  <style>
svg { background-color:#3FA1AB; }

#looom {
--version:2; --tempo:120; --musicTime:0; 
}

#t0 {
--visible:1; --timeOffset:0; --speed:12; --bookmarkIndex:-1; --latched:0; --playMode:0; --masked:0; --blendMode:0; --pressureEnabled:0; 
stroke:#E47164; stroke-opacity:1; fill-opacity:0; stroke-width:50; stroke-linecap:round; stroke-linejoin:round;
}
@keyframes t0 { 0% { opacity: 1; } 8.333333% { opacity: 0; } }
#t0 .frame { animation:t0 1s calc(var(--index) * 0.08333334s) steps(1) infinite; }

</style>
  <g id="w0" transform="translate(55.75 -240.00) scale(1.02 1.02) rotate(-359.72)" class="weave">
    <g id="t0" transform="translate(-57.50 240.50)" class="thread">
      <g id="f0" style="--index:0; opacity:1;" class="frame">
        <path d="M-357.50,-173.50" />
        <path d="M-503.01,-92.50" />
        <path d="M-331.50,-137.50" />
        <path d="M494.00,-212.50" />
        <path d="M-80.50,-166.50" />
        <path d="M-591.51,293.50" />
        <path d="M474.00,-247.50L515.51,-293.50L519.01,-298.50" />
        <path d="M432.00,231.50L452.50,247.00L476.00,261.00L503.50,276.00" />
        <path d="M-74.00,-192.50L-75.00,-202.00L-79.00,-218.00L-87.50,-246.50" />
        <path d="M385.50,-40.50" />
        <path d="M-313.00,36.00" />
        <path d="M-254.50,-320.50L-260.50,-328.00L-266.00,-342.50" />
        <path d="M511.51,28.50L512.51,28.50" />
        <path d="M-132.50,-74.00L-153.00,-123.50" />
      </g>
      <g id="f1" style="--index:1; opacity:0;" class="frame">
        <path d="M-357.50,-173.50" />
        <path d="M-503.01,-92.50" />
        <path d="M-209.50,9.50" />
        <path d="M494.00,-212.50L497.50,-207.00" />
        <path d="M-591.51,293.50" />
        <path d="M519.01,-298.50L521.51,-301.00" />
        <path d="M503.50,276.00L521.51,286.50L522.01,287.50" />
        <path d="M-87.50,-246.50L-107.50,-315.50L-110.00,-326.50" />
        <path d="M385.50,-40.50L391.50,-45.50L424.00,-58.50L473.50,-81.00" />
        <path d="M-313.00,36.00L-329.00,37.00L-382.50,57.50" />
        <path d="M-266.00,-342.50L-277.50,-371.50L-281.00,-386.00" />
        <path d="M-153.00,-123.50L-157.00,-134.50" />
      </g>
      <g id="f2" style="--index:2; opacity:0;" class="frame">
        <path d="M-357.50,-173.50" />
        <path d="M473.50,-195.50" />
        <path d="M340.00,-95.50" />
        <path d="M-121.50,11.00" />
        <path d="M-209.50,9.50" />
        <path d="M394.50,-33.50" />
        <path d="M-232.50,-222.00L-244.50,-222.50" />
        <path d="M271.50,218.00" />
        <path d="M521.51,-301.00" />
        <path d="M96.50,-271.00" />
        <path d="M522.01,287.50" />
        <path d="M-110.00,-326.50L-111.00,-341.00" />
        <path d="M473.50,-81.00L504.00,-94.50L532.01,-109.00" />
        <path d="M-382.50,57.50L-394.50,63.00L-415.50,74.50L-434.50,87.00" />
      </g>
      <g id="f3" style="--index:3; opacity:0;" class="frame">
        <path d="M340.00,-95.50" />
        <path d="M-438.50,12.00" />
        <path d="M-244.50,-222.50L-253.50,-224.00" />
        <path d="M271.50,218.00" />
        <path d="M96.50,-271.00L98.50,-307.50" />
        <path d="M532.01,-109.00L538.51,-112.00" />
        <path d="M-451.00,-120.00" />
      </g>
      <g id="f4" style="--index:4; opacity:0;" class="frame">
        <path d="M334.00,-183.50" />
        <path d="M98.50,-307.50L101.00,-341.00L101.50,-385.50" />
        <path d="M-115.00,254.00L-118.00,266.50L-121.00,293.00" />
        <path d="M377.50,-245.00" />
        <path d="M-451.00,-120.00L-475.50,-120.50L-492.50,-123.00" />
      </g>
      <g id="f5" style="--index:5; opacity:0;" class="frame">
        <path d="M333.50,-327.00L322.00,-332.50" />
        <path d="M0.00,-271.00" />
        <path d="M334.00,-183.50L324.50,-190.50L321.00,-192.00" />
        <path d="M-354.50,-194.50L-368.50,-194.00L-369.50,-193.50L-369.50,-190.50" />
        <path d="M-335.00,198.00" />
        <path d="M-409.00,-246.50L-417.00,-254.00" />
        <path d="M101.50,-385.50L101.50,-405.50L102.00,-412.00L103.50,-417.00" />
        <path d="M-121.00,293.00L-125.50,319.00L-129.00,332.00" />
        <path d="M377.50,-245.00L386.00,-257.00L417.00,-290.50" />
        <path d="M107.00,20.50" />
        <path d="M-492.50,-123.00L-563.51,-138.50" />
      </g>
      <g id="f6" style="--index:6; opacity:0;" class="frame">
        <path d="M-349.50,118.50" />
        <path d="M-119.00,-248.00" />
        <path d="M158.50,176.50" />
        <path d="M322.00,-332.50" />
        <path d="M-185.50,-280.50" />
        <path d="M-399.00,195.00" />
        <path d="M0.00,-271.00" />
        <path d="M334.50,203.00" />
        <path d="M-369.50,-190.50" />
        <path d="M-417.00,-254.00L-430.00,-272.00L-454.50,-310.50" />
        <path d="M103.50,-417.00L104.00,-417.00" />
        <path d="M417.00,-290.50L452.50,-335.00" />
        <path d="M107.00,20.50L110.50,7.50L123.50,-16.50" />
        <path d="M-563.51,-138.50L-569.51,-139.50" />
      </g>
      <g id="f7" style="--index:7; opacity:0;" class="frame">
        <path d="M-349.50,118.50" />
        <path d="M-119.00,-248.00" />
        <path d="M158.50,176.50" />
        <path d="M-185.50,-280.50" />
        <path d="M334.50,203.00" />
        <path d="M222.00,-280.00L210.50,-286.50" />
        <path d="M-454.50,-310.50L-468.00,-331.50" />
        <path d="M452.50,-335.00L455.00,-336.00" />
        <path d="M123.50,-16.50L157.00,-74.50" />
      </g>
      <g id="f8" style="--index:8; opacity:0;" class="frame">
        <path d="M213.50,-233.50" />
        <path d="M268.50,-377.50" />
        <path d="M210.50,-286.50L204.50,-287.00" />
        <path d="M-51.50,-6.50" />
        <path d="M-468.00,-331.50L-468.00,-333.00" />
        <path d="M-259.50,198.50L-273.00,203.00" />
        <path d="M157.00,-74.50L161.00,-80.00L166.00,-85.00" />
      </g>
      <g id="f9" style="--index:9; opacity:0;" class="frame">
        <path d="M-278.00,-343.50L-287.50,-347.50L-290.50,-346.00" />
        <path d="M-235.00,279.00" />
        <path d="M268.50,-377.50" />
        <path d="M-51.50,-6.50" />
        <path d="M-286.50,134.50" />
        <path d="M360.00,30.50" />
        <path d="M-273.00,203.00L-325.50,242.50L-368.00,279.00" />
      </g>
      <g id="f10" style="--index:10; opacity:0;" class="frame">
        <path d="M-194.50,-60.50" />
        <path d="M405.00,118.50" />
        <path d="M-235.00,279.00" />
        <path d="M440.50,-209.00" />
        <path d="M-368.00,279.00L-401.50,307.50" />
        <path d="M418.00,41.00L441.50,40.00L459.00,37.50" />
        <path d="M-115.50,-43.50" />
      </g>
      <g id="f11" style="--index:11; opacity:0;" class="frame">
        <path d="M-194.50,-60.50" />
        <path d="M405.00,118.50" />
        <path d="M211.50,-70.00" />
        <path d="M163.50,114.50" />
        <path d="M-80.50,-166.50" />
        <path d="M-591.51,293.50" />
        <path d="M440.50,-209.00L448.50,-221.00L474.00,-247.50" />
        <path d="M-401.50,307.50" />
        <path d="M408.00,216.50L411.50,218.00L432.00,231.50" />
        <path d="M-74.00,-192.50" />
        <path d="M459.00,37.50L511.51,28.50" />
        <path d="M-115.50,-43.50L-121.00,-50.00L-132.50,-74.00" />
      </g>
    </g>
  </g>
</svg>