<svg width="200" height="94" viewBox="0 0 200 94" fill="none" xmlns="http://www.w3.org/2000/svg">
<path d="M70.5 28H64.7V5.1H56.3V0.1H78.9V5.1H70.5V28ZM86.8 15.5V28H81V0.1H86.8V10.7H97.7V0.1H103.5V28H97.7V15.5H86.8ZM126 5H111.4V10.9H124.3V15.8H111.4V23.1H126V28H106V0.1H126V5ZM17.3 32.3H22.7V60.1H16.9L5.5 40.3H5.4V60.1H0V32.3H6.1L17.2 51.6H17.3V32.3ZM38.7 31.5C42.4 31.5 52.1 33.1 52.1 46.1C52.1 59.1 42.4 60.7 38.7 60.7C35 60.7 25.3 59.1 25.3 46.1C25.3 33.1 35 31.5 38.7 31.5ZM38.7 55.9C41.8 55.9 46.2 54 46.2 46.2C46.2 38.4 41.8 36.5 38.7 36.5C35.6 36.5 31.1 38.4 31.1 46.2C31.1 54 35.6 55.9 38.7 55.9V55.9ZM93.1 60.1H87.3V37.2H78.8V32.3H101.5V37.2H93.1V60.1ZM109.4 47.6V60.1H103.6V32.3H109.4V42.8H120.2V32.3H126V60.1H120.2V47.6H109.4ZM54.5 32.3H68.6C76 32.3 77.4 37.8 77.4 40.2C77.4 43.3 75.8 45.9 73.1 46.8C75.4 47.8 76.6 48.7 76.6 53.9C76.6 58 76.6 59 77.8 59.4V60.1H71.4C71 58.8 70.8 57.4 70.8 54.5C70.8 50.7 70.6 49.2 66.3 49.2H60.3V60.1H54.6L54.5 32.3V32.3ZM67 44.5C70 44.5 71.5 43.4 71.5 40.7C71.5 39.2 70.8 37.1 67.4 37.1H60.2V44.5H67ZM41 93.1H35.1V64.5H55.4V69.6H41V76H53.6V81.1H41V93.1ZM58.1 93.1H51.8L62 64.5H68.9L79 93.1H72.5L70.7 87.2H60L58.1 93.1ZM61.6 82.3H68.9L65.4 71H65.3L61.6 82.3V82.3ZM97.2 74C96.7 72.3 95.8 69.1 90.9 69.1C88 69.1 83.8 71 83.8 79.1C83.8 84.2 85.8 88.8 90.9 88.8C94.2 88.8 96.5 86.9 97.2 83.4H103.2C102 89.6 98 93.9 90.8 93.9C83.2 93.9 77.8 88.8 77.8 78.9C77.8 68.9 83.6 63.8 90.9 63.8C99.4 63.8 102.9 69.7 103.2 73.9H97.2V74V74ZM126.1 69.6H111.1V75.6H124.4V80.6H111.1V88H126.1V93.1H105.6V64.5H126.1V69.6ZM24.3 78.6C28.5 78.6 32 81.9 32 86.3C32 90.7 28.5 94 24.3 94C20.1 94 16.5 90.7 16.5 86.3C16.5 81.9 20.1 78.6 24.3 78.6ZM24.3 92.9C27.9 92.9 30.6 90.1 30.6 86.3C30.6 82.6 27.8 79.8 24.3 79.8C20.7 79.8 17.9 82.6 17.9 86.3C17.9 90 20.7 92.9 24.3 92.9V92.9ZM21.3 81.8H24.8C26.9 81.8 28 82.6 28 84.4C28 86 27 86.7 25.6 86.9L28.2 90.9H26.7L24.2 87H22.7V90.9H21.3V81.8V81.8ZM22.7 85.8H24.2C25.4 85.8 26.6 85.7 26.6 84.3C26.6 83.1 25.6 82.9 24.6 82.9H22.7V85.8ZM145.1 91.3V76.6C145.1 70 139.7 64.6 133.1 64.6H131.8V93.2H145.1V91.3V91.3ZM200 91.3V66.9C200 30 170 0 133.1 0H132.4H132.5H131.8V28H133.7C155.4 28.3 173.1 46 173.4 67.7V93H200V91.3Z" fill="black"/>
<path d="M169.1 92.3001V68.1C169 48.8 153.6 33.1 134.5 32.3H132.3H132.4H131.7V60.2001H133C142 60.2001 149.2 67.5001 149.2 76.4001V93H169.1V92.3001Z" fill="black"/>
</svg>
