<svg width="44" height="44" viewBox="0 0 44 44" fill="none" xmlns="http://www.w3.org/2000/svg">
<path d="M25.0446 29.533C24.9708 29.4599 24.8711 29.4188 24.7672 29.4188C24.6633 29.4188 24.5635 29.4599 24.4897 29.533L18.7835 35.2392C16.1415 37.8812 11.6826 38.1611 8.7656 35.2392C5.84373 32.3173 6.12364 27.8633 8.7656 25.2214L14.4719 19.5151C14.6241 19.3629 14.6241 19.1124 14.4719 18.9602L12.5174 17.0057C12.4436 16.9326 12.3438 16.8916 12.2399 16.8916C12.136 16.8916 12.0363 16.9326 11.9625 17.0057L6.25623 22.712C2.10176 26.8665 2.10176 33.5892 6.25623 37.7388C10.4107 41.8883 17.1335 41.8932 21.283 37.7388L26.9893 32.0325C27.1415 31.8803 27.1415 31.6299 26.9893 31.4776L25.0446 29.533ZM37.7437 6.25619C33.5893 2.10173 26.8665 2.10173 22.7169 6.25619L17.0058 11.9624C16.9327 12.0363 16.8917 12.136 16.8917 12.2399C16.8917 12.3438 16.9327 12.4435 17.0058 12.5174L18.9553 14.4669C19.1076 14.6191 19.358 14.6191 19.5102 14.4669L25.2165 8.76065C27.8585 6.11869 32.3174 5.83878 35.2344 8.76065C38.1562 11.6825 37.8763 16.1365 35.2344 18.7785L29.5281 24.4848C29.455 24.5586 29.414 24.6583 29.414 24.7622C29.414 24.8661 29.455 24.9658 29.5281 25.0397L31.4826 26.9941C31.6348 27.1464 31.8852 27.1464 32.0375 26.9941L37.7437 21.2879C41.8933 17.1334 41.8933 10.4107 37.7437 6.25619ZM26.8174 15.1397C26.7436 15.0666 26.6438 15.0255 26.5399 15.0255C26.436 15.0255 26.3363 15.0666 26.2625 15.1397L15.1397 26.2575C15.0666 26.3314 15.0256 26.4311 15.0256 26.535C15.0256 26.6389 15.0666 26.7386 15.1397 26.8124L17.0844 28.7571C17.2366 28.9093 17.487 28.9093 17.6393 28.7571L28.7571 17.6392C28.9094 17.487 28.9094 17.2365 28.7571 17.0843L26.8174 15.1397Z" fill="black"/>
</svg>
