<svg width="572.879" height="138.136" xmlns="http://www.w3.org/2000/svg"><path d="M69.061 0C30.926 0 .008 30.911 0 69.05v.036c.004 15.742 5.279 30.242 14.147 41.853l57.408-75.442-6.179.01-6.129-.01c-6.55 0-12.692.465-17.131 1.327-2.691.53-5.084 1.493-7.035 2.875-2.29 1.605-5.158 5.012-7.035 8.361-.213.39-.533.96-.933 1.792l-3.353-.764 5.63-21.664h71.913l-57.144 76.402c3.713-.329 5.202-.414 8.216-.414 2.318 0 5.837.15 10.54.425l10.154.628c3.651.207 6.746.315 9.098.315 5.233 0 8.636-.407 12.02-1.442a27.746 27.746 0 007.391-3.56c4.011-2.783 7.914-7.221 10.249-11.684.223-.448.597-1.14 1.018-2.053l3.057.777c-.994 3.787-1.517 5.237-3.034 8.619-3.071 6.859-6.539 11.454-11.3 14.973-4.9 3.628-10.317 5.406-16.727 5.511l-.977.011c-4.745 0-8.413-.398-19.781-2.132-11.559-1.781-17.447-2.389-23.253-2.389-3.889 0-7.503.295-11.25.913-4.961.783-6.906 1.364-11.409 3.417 12.61 13.751 30.752 22.395 50.89 22.395 38.137 0 69.062-30.923 69.062-69.07C138.123 30.919 107.198 0 69.061 0m355.584 47.952c.017-4.496.132-5.728.703-7.554a9.645 9.645 0 01.971-2.094c.685-1.14 1.18-1.686 2.52-2.806h-21.596c1.398 1.208 1.86 1.7 2.504 2.657.432.706.798 1.432 1.039 2.199.495 1.622.665 3.244.705 7.242 0 2.049.011 3.4.011 4.059v40.282c0 2.368-.421 4.879-1.058 6.518a9.348 9.348 0 01-1.077 1.958c-.502.74-.865 1.148-2.052 2.372h21.355c-1.052-.906-1.429-1.327-2.07-2.372a9.678 9.678 0 01-1.073-2.053c-.573-1.527-.906-3.78-.906-5.901V51.902l.024-3.95m143.771-.024c0-2.989.228-5.266.74-7.129.238-.862.608-1.697 1.066-2.481.703-1.151 1.228-1.7 2.657-2.82h-21.953c1.272 1.062 1.711 1.541 2.461 2.735.481.777.851 1.578 1.116 2.345.513 1.588.72 3.557.72 7.076v16.343h-30.149V51.729c0-3.726.024-6.156.18-7.985.085-1.093.262-2.07.543-2.922.458-1.448 1.689-3.454 2.782-4.598.147-.163.425-.417.744-.726H507.76c1.293 1.327 1.64 1.734 2.213 2.593a9.78 9.78 0 011.167 2.277c.56 1.703.665 2.636.73 7.119l.072 4.259v36.848c0 3.732-.072 5.372-.273 7.085-.122.869-.355 1.758-.668 2.675-.56 1.449-1.33 2.585-2.599 3.759-.153.157-.398.37-.737.672h21.308c-.93-.96-1.248-1.367-1.809-2.22a14.802 14.802 0 01-1.079-2.086c-.679-1.782-.892-3.047-.987-5.905a336.185 336.185 0 01-.024-4.014V72.253h30.149v16.422c0 3.628-.038 4.951-.306 6.838-.108 1.018-.34 2.003-.72 2.908-.488 1.26-1.258 2.406-2.419 3.526-.201.173-.485.475-.926.838h21.495c-.886-.879-1.219-1.259-1.796-2.08a10.737 10.737 0 01-1.248-2.209c-.659-1.592-.809-2.766-.887-6.088-.04-1.978-.051-3.129-.051-3.485l.051-37.021v-3.974M370.813 65.134c-2.399 1.408-4.863 2.209-8.47 2.724-1.371.214-2.566.324-3.516.324-.34 0-.577-.011-1.092-.052V43.225c.858-.024 1.18-.024 1.76-.024 3.296 0 6.52.387 9.044 1.107a12.33 12.33 0 014.578 2.436c2.271 1.941 3.465 4.755 3.465 8.263 0 3.055-.886 5.647-2.63 7.602-.818.933-1.883 1.772-3.139 2.525zm25.696 32.989c-2.368-2.254-4.486-4.395-7.622-7.819a185.803 185.803 0 01-4.91-5.471l-10.452-12.305c1.289-.38 1.819-.563 2.979-1.028 3.398-1.341 5.977-2.83 8.301-4.795 2.664-2.243 4.3-4.643 5.294-7.677a16.16 16.16 0 00.828-5.185c0-4.136-1.53-7.89-4.544-11.032-2.77-2.905-6.614-5.043-10.935-6.071-3.016-.696-6.148-1.022-11.497-1.164a248.04 248.04 0 00-6.244-.078h-17.361c1.167 1.086 1.601 1.564 2.243 2.535.506.774.937 1.605 1.194 2.45.452 1.517.638 3.604.638 7.171v44.15c0 3.179-.2 5.029-.743 6.515a10.182 10.182 0 01-1.16 2.128c-.632.794-1.019 1.201-2.274 2.338h21.393c-.971-1.035-1.266-1.367-1.86-2.188a9.154 9.154 0 01-1.14-2.054c-.577-1.489-.845-3.098-.852-6.217a101.6 101.6 0 01-.05-3.37V73.821l12.47 14.946c.581.709 1.521 1.788 2.777 3.26 1.465 1.633 2.551 2.858 3.308 3.618 2.403 2.478 4.687 4.3 6.94 5.525 1.955 1.035 3.774 1.473 6.675 1.571 1.1.034 2.274.044 3.505.044h8.441c-1.114-.889-1.592-1.268-2.457-2.022a72.294 72.294 0 01-2.885-2.64zm92.692-5.061c-4.046 1.708-7.751 2.495-11.745 2.495-6.961 0-12.916-2.484-17.331-7.239-4.368-4.716-6.699-11.253-6.699-18.647 0-7.045 2.179-13.594 6.071-18.155 1.683-1.993 3.737-3.665 6.091-4.986 3.812-2.124 8.233-3.234 13.028-3.234 4.1 0 8.074.805 12.081 2.43 2.492 1.018 3.397 1.521 5.536 3.041V36.112c-1.654-.536-2.315-.719-4.083-1.103-3.896-.818-7.623-1.191-11.854-1.191-7.228 0-13.479 1.164-19.167 3.574a38.737 38.737 0 00-9.254 5.483c-8.291 6.682-12.804 16.348-12.804 27.502 0 10.818 4.351 20.168 12.289 26.446 6.555 5.175 14.996 7.781 25.135 7.781 6.329 0 12.247-.943 18.885-3.013.252-.074.618-.196 1.097-.35v-12.22c-1.622 1.069-2.169 1.418-3.136 1.989a36.588 36.588 0 01-4.14 2.052M310.296 38.111c.424.716.776 1.486.994 2.287.472 1.626.594 3.265.594 7.045v25.581c0 5.497-.156 8.751-.57 11.429a13.658 13.658 0 01-1.728 4.935c-1.636 2.738-4.673 4.842-8.267 5.761-1.462.357-3.057.547-4.781.547-5.772 0-10.73-2.162-13.139-5.698-1.853-2.748-2.363-5.361-2.447-12.277l-.045-5.549V51.885c0-3.933.017-5.802.16-7.808.064-1.202.237-2.244.492-3.088.468-1.548 1.615-3.608 2.691-4.877.153-.139.313-.322.573-.597h-21.871c1.344 1.12 1.775 1.632 2.437 2.725a8.67 8.67 0 01.95 2.338c.268 1.018.428 2.06.461 3.102.007.658.021 2.053.024 4.171l.034 3.895v19.273c0 7.156.027 8.968.268 11.842.391 4.918 1.87 8.841 4.714 12.405 5.094 6.406 13.286 9.762 23.731 9.762 4.992 0 9.828-.759 13.517-2.131 3.879-1.439 7.455-3.837 10.018-6.678 3.111-3.489 4.9-7.779 5.422-13.075.343-3.079.468-6.744.468-12.014V51.777l-.053-3.842v-.757c0-2.894.159-4.581.573-6.142a9.349 9.349 0 011.164-2.718c.713-1.147 1.218-1.676 2.637-2.803h-21.451c1.303 1.031 1.757 1.517 2.43 2.596M236.52 93.327c-2.987.547-6.37.852-10.564.954-1.415.041-3.187.041-5.383.041h-10.309l40.79-58.824h-52.916l-6.498 14.361c2.175-1.157 3.04-1.561 4.914-2.321a49.45 49.45 0 019.519-2.691c2.779-.475 5.338-.696 9.485-.818 1.863-.061 3.614-.095 5.229-.095h7.826l-41.168 58.851h58.193l6.72-15.346c-2.339 1.344-3.167 1.772-4.945 2.586a43.511 43.511 0 01-10.893 3.302" fill="#28639e" fill-rule="evenodd"/></svg>