<?xml version="1.0" encoding="utf-8"?>
<!-- Generator: Adobe Illustrator 25.2.0, SVG Export Plug-In . SVG Version: 6.00 Build 0)  -->
<svg version="1.1" id="Layer_1" xmlns="http://www.w3.org/2000/svg" xmlns:xlink="http://www.w3.org/1999/xlink" x="0px" y="0px"
	 viewBox="0 0 213 37" style="enable-background:new 0 0 213 37;" xml:space="preserve">
<style type="text/css">
	.st0{fill-rule:evenodd;clip-rule:evenodd;fill:#1B5C85;}
	.st1{fill:#1B5C85;}
</style>
<g id="Desktop">
	<polygon id="Fill-1" class="st0" points="26.5,15 22.9,28.4 18.4,15 14.5,15 10,28.4 6.3,15 0,15 6.5,37 12.2,37 15.8,25.5 
		19.7,37 25,37 31.5,15 	"/>
	<polygon id="Fill-2" class="st0" points="36.4,15 36.4,23.5 44.4,23.5 44.4,15 50.2,15 50.2,37 44.4,37 44.4,27.9 36.4,27.9 
		36.4,37 30.5,37 30.5,15 	"/>
	<polygon id="Fill-3" class="st0" points="53.2,37 59.1,37 59.1,15 53.2,15 	"/>
	<polygon id="Fill-4" class="st0" points="78.8,15 78.8,19.5 72,19.5 72,37 65.9,37 65.9,19.5 59.1,19.5 59.1,15 	"/>
	<polygon id="Fill-5" class="st0" points="95.9,15 95.9,19.5 85.6,19.5 85.6,23.8 91.9,23.8 91.9,28 85.6,28 85.6,32.5 96.6,32.5 
		96.6,37 79.8,37 79.8,15 	"/>
	<path id="Fill-6" class="st0" d="M110.3,25.1h4.3c1.8,0,3.1-0.8,3.1-3.1c0-1.9-1.2-2.7-3.1-2.7h-4.3V25.1z M115.3,15
		c4.4,0,8.3,1.9,8.3,6.7c0,3.3-1.3,5.7-3.9,6.8l4.5,8.5h-6.7l-3.8-8h-3.3v8h-5.9V15H115.3z"/>
	<polygon id="Fill-8" class="st0" points="125.1,37 131,37 131,15 125.1,15 	"/>
	<path id="Fill-10" class="st0" d="M134.9,29.6c2.2,2.2,4.8,3.2,7.4,3.2c2.1,0,3.4-0.6,3.4-2c0-3.8-13.3-1.5-13.3-10
		c0-4.8,4.4-6.9,9.3-6.9c4.8,0,8.3,2.1,9.9,3.8l-2.8,3.2c-1.6-1.6-4.1-2.9-7-2.9c-1.9,0-3.3,0.5-3.3,1.9c0,3.8,13.3,1.3,13.3,9.9
		c0,5.8-5.6,7-9.4,7c-3.2,0-7.1-0.9-10.3-4L134.9,29.6z"/>
	<polygon id="Fill-11" class="st0" points="172.9,15 165,24.7 173.4,37 166.4,37 160.9,28.8 158.7,31.6 158.7,37 152.7,37 152.7,15 
		158.7,15 158.7,24.6 166.4,15 	"/>
	<path id="snowflake" class="st1" d="M197.3,26c-0.1,0.1-0.3,0.2-0.4,0.3c-0.1,0.1-0.3,0.1-0.5,0.1c-0.1,0-0.3-0.1-0.5-0.2
		c-0.2-0.1-0.4-0.2-0.4-0.4v-1.3c0,0,0.1-0.1,0.3-0.3c0.2-0.1,0.5-0.3,0.7-0.5c0.3-0.2,0.5-0.3,0.8-0.5c0.3-0.2,0.4-0.3,0.5-0.3
		c0,0,0.1-0.1,0.2-0.1c0.1-0.1,0.2-0.1,0.3-0.2c0.1-0.1,0.2-0.1,0.3-0.2c0.1-0.1,0.2-0.1,0.2-0.1v-0.1v-0.1c0,0,0,0,0-0.1
		c0,0-0.1-0.1-0.1-0.1c0,0-0.1-0.1-0.3-0.2c-0.2-0.1-0.3-0.2-0.3-0.2v-5.1c-0.5,0-0.9,0.1-1.4,0.4c-0.5,0.3-0.9,0.5-1.3,0.7
		c-0.1,0-0.2,0.1-0.4,0.2s-0.4,0.2-0.6,0.3c-0.2,0.1-0.4,0.2-0.6,0.3c-0.2,0.1-0.3,0.2-0.4,0.2c0,0-0.1,0-0.1,0c-0.1,0-0.1,0-0.1,0
		c-0.2,0-0.3,0-0.4-0.1c-0.1,0-0.3-0.1-0.4-0.1c0,0-0.1,0-0.2,0c-0.1,0-0.1,0-0.1,0.1v3.6c0,0.1,0,0.2-0.1,0.3
		c-0.1,0.1-0.2,0.2-0.3,0.2c-0.1,0.1-0.3,0.1-0.4,0.2c-0.1,0-0.2,0.1-0.3,0.1h-0.1c-0.1,0-0.3-0.1-0.5-0.2c-0.3-0.1-0.4-0.2-0.4-0.4
		v-1.3c0,0,0-0.1,0-0.1c0-0.1-0.1-0.1-0.1-0.1c0,0,0,0-0.1,0l-0.1,0l-2.5,1.1c0,0,0,0-0.1,0h-0.1c-0.1,0-0.3,0-0.5-0.1
		c-0.2-0.1-0.4-0.2-0.4-0.3v-1c0-0.1,0.1-0.2,0.3-0.3c0.2-0.1,0.5-0.2,0.8-0.4c0.3-0.1,0.6-0.3,0.9-0.5c0.3-0.2,0.5-0.3,0.6-0.5
		c0,0,0-0.1-0.1-0.1c-0.1-0.1-0.3-0.2-0.6-0.3c-0.3-0.2-0.5-0.3-0.6-0.3v-1.1c0-0.1,0.1-0.2,0.2-0.3c0.1-0.1,0.2-0.2,0.4-0.3
		c0.1-0.1,0.3-0.1,0.4-0.2c0.1,0,0.3-0.1,0.3-0.1h0.1c0.1,0,0.1,0,0.1,0l2.9,1.4h0.3c0-0.2,0-0.3,0-0.4c0,0,0-0.2,0.1-0.4
		c0.8-0.4,1.5-0.9,2.3-1.3c0.8-0.4,1.5-0.9,2.3-1.3l0-0.1l0-0.1c0,0-0.1-0.1-0.2-0.2c-0.1-0.1-0.2-0.2-0.2-0.2
		c-0.1-0.1-0.4-0.2-0.7-0.4c-0.4-0.2-0.7-0.4-1.1-0.6c-0.4-0.2-0.8-0.4-1.1-0.6c-0.4-0.2-0.6-0.3-0.7-0.4c-0.1,0-0.1-0.1-0.2-0.2
		c-0.1-0.1-0.2-0.2-0.2-0.3c-0.1-0.1-0.2-0.2-0.2-0.3c-0.1-0.1-0.1-0.1-0.1-0.1c0,0,0,0-0.1,0c0,0-0.1,0-0.1,0l-3.3,1.6h-0.1
		c-0.4,0-0.6-0.1-0.9-0.4c-0.2-0.3-0.3-0.5-0.3-0.8c0-0.3,0.1-0.5,0.3-0.6c0.2-0.1,0.4-0.3,0.6-0.4c0.2-0.1,0.4-0.2,0.6-0.3
		c0.2-0.1,0.3-0.2,0.3-0.4c0-0.2-0.1-0.4-0.4-0.5c-0.3-0.1-0.6-0.3-0.9-0.4c-0.3-0.1-0.6-0.3-0.9-0.5c-0.3-0.2-0.4-0.5-0.4-0.8
		c0-0.2,0.1-0.4,0.2-0.6c0.1-0.2,0.4-0.3,0.6-0.3c0.2,0,0.5,0.1,0.7,0.2c0.2,0.1,0.5,0.3,0.7,0.5c0.2,0.2,0.5,0.3,0.7,0.5
		c0.2,0.1,0.5,0.2,0.7,0.2h0.1c0-0.2,0-0.4,0-0.6c0-0.2,0.1-0.4,0.2-0.6c0.1-0.2,0.2-0.3,0.4-0.4c0.2-0.1,0.4-0.2,0.7-0.2
		c0.1,0,0.2,0,0.3,0c0.1,0,0.3,0.1,0.4,0.1c0.1,0,0.3,0.1,0.4,0.2c0.1,0.1,0.2,0.1,0.2,0.2v3.2l0.1,0.3c0,0,0.2-0.1,0.3-0.1
		c0.2-0.1,0.3-0.1,0.3-0.1h0.1c0.1,0,0.2,0,0.2,0c0,0,0.1,0.1,0.2,0.1c0.1,0.1,0.4,0.2,0.8,0.4c0.4,0.2,0.8,0.4,1.2,0.7
		c0.4,0.2,0.8,0.5,1.2,0.7c0.4,0.2,0.6,0.3,0.8,0.4h0.2c0,0,0.1,0,0.2,0c0.1,0,0.1,0,0.1-0.1V7.3c0-0.1,0-0.2,0.1-0.3
		c0.1-0.1,0.2-0.1,0.3-0.2c0.1-0.1,0.2-0.1,0.3-0.2c0.1-0.1,0.1-0.2,0.1-0.3c0,0,0-0.1,0-0.2l-3.2-1.9V3c0-0.1,0.1-0.1,0.2-0.2
		c0.1-0.1,0.2-0.1,0.4-0.2c0.1-0.1,0.3-0.1,0.4-0.2c0.1,0,0.2-0.1,0.2-0.1h0.1h0.1l1.1,0.6h0.1h0.1c0,0,0.1,0,0.1-0.1
		c0.1,0,0.1-0.1,0.1-0.1V0.5c0-0.2,0.1-0.3,0.3-0.4C199,0,199.2,0,199.3,0c0.1,0,0.1,0,0.3,0c0.1,0,0.2,0.1,0.3,0.1
		c0.1,0.1,0.2,0.1,0.3,0.2s0.1,0.1,0.1,0.2v2.6c0.2,0,0.4,0,0.5-0.1c0.2-0.1,0.3-0.2,0.5-0.3c0.2-0.1,0.3-0.2,0.5-0.3
		c0.2-0.1,0.3-0.1,0.5-0.1c0.1,0,0.3,0.1,0.6,0.2c0.3,0.1,0.4,0.2,0.4,0.4v1.3c0,0.1-0.1,0.1-0.2,0.2c-0.2,0.1-0.4,0.2-0.6,0.3
		c-0.2,0.1-0.4,0.2-0.6,0.3c-0.2,0.1-0.3,0.2-0.4,0.2c0,0-0.1,0.1-0.3,0.1c-0.1,0.1-0.3,0.2-0.5,0.3c-0.2,0.1-0.3,0.2-0.5,0.3
		c-0.2,0.1-0.3,0.2-0.3,0.2c-0.1,0.1-0.1,0.1-0.1,0.3c0,0.1,0,0.2,0.1,0.3c0.1,0.1,0.2,0.1,0.4,0.2v5.3h0.5l4.4-2.4h0.2
		c0.2,0,0.3,0,0.4,0.1c0.1,0,0.2,0.1,0.4,0.1s0.2,0,0.2-0.1c0-0.1,0-0.2,0-0.3c0-0.1,0-0.3,0-0.6c0-0.3,0-0.6,0-1c0-0.3,0-0.7,0-1
		c0-0.3,0-0.5,0-0.6c0.1-0.2,0.3-0.3,0.5-0.5c0.2-0.1,0.4-0.2,0.6-0.2c0,0,0,0,0.1,0c0,0,0,0,0.1,0c0.2,0.1,0.4,0.2,0.6,0.3
		c0.3,0.1,0.4,0.2,0.4,0.2v1.5c0.3,0,0.5-0.1,0.7-0.2c0.2-0.1,0.5-0.3,0.7-0.4c0.2-0.1,0.4-0.3,0.7-0.4c0.2-0.1,0.5-0.2,0.7-0.2
		c0.2,0,0.5,0.1,0.7,0.2c0.2,0.1,0.3,0.3,0.3,0.6c0,0.3-0.1,0.6-0.3,0.8c-0.2,0.2-0.5,0.3-0.7,0.5c-0.3,0.1-0.6,0.3-0.9,0.4
		c-0.3,0.1-0.5,0.3-0.7,0.6c0,0,0,0,0.1,0c0,0,0.1,0.1,0.1,0.1c0,0,0.1,0.1,0.2,0.1c0.1,0.1,0.3,0.2,0.4,0.2
		c0.2,0.1,0.3,0.2,0.4,0.3c0.1,0.1,0.2,0.1,0.3,0.1c0,0,0.1,0,0.2,0.1v1.2c0,0,0,0.1-0.1,0.1c-0.1,0.1-0.1,0.1-0.2,0.1
		c-0.1,0-0.3,0.1-0.5,0.2c-0.2,0.1-0.3,0.2-0.4,0.2c0,0-0.1,0-0.2,0c-0.1,0-0.2-0.1-0.2-0.1c-0.1-0.1-0.3-0.2-0.6-0.3
		c-0.3-0.1-0.6-0.3-0.9-0.5c-0.3-0.2-0.6-0.3-0.9-0.5c-0.3-0.2-0.5-0.3-0.6-0.3h-0.1c-0.1,0-0.2,0.1-0.2,0.2c0,0.1-0.1,0.2-0.1,0.4
		c0,0.1-0.1,0.3-0.2,0.5c-0.1,0.2-0.3,0.3-0.5,0.4c-0.1,0.1-0.4,0.2-0.8,0.4c-0.4,0.2-0.7,0.4-1.1,0.6c-0.4,0.2-0.8,0.4-1.2,0.6
		c-0.4,0.2-0.6,0.3-0.8,0.4l-0.2,0.2l4.2,2.4c0.1,0.1,0.1,0.1,0.2,0.3c0.1,0.1,0.1,0.2,0.1,0.4c0,0.1,0.1,0.2,0.1,0.3
		c0,0.1,0.1,0.1,0.2,0.1c0.3,0,0.7-0.1,1-0.3c0.3-0.2,0.6-0.4,0.9-0.6c0.3-0.2,0.6-0.4,0.9-0.6c0.3-0.2,0.6-0.3,0.9-0.3
		c0.4,0,0.7,0.1,0.9,0.4c0.2,0.3,0.3,0.6,0.3,0.9c0,0.2-0.1,0.4-0.2,0.5c-0.1,0.1-0.3,0.2-0.5,0.3c-0.2,0.1-0.4,0.2-0.6,0.3
		c-0.2,0.1-0.3,0.2-0.5,0.4l0.1,0.1l2.5,1.4l0.2,0.9c0,0.1,0,0.1-0.1,0.2c-0.1,0.1-0.2,0.1-0.3,0.2c-0.1,0.1-0.2,0.1-0.3,0.2
		c-0.1,0-0.2,0.1-0.2,0.1c-0.2,0-0.5-0.1-0.7-0.2c-0.2-0.1-0.4-0.3-0.7-0.4c-0.2-0.2-0.5-0.3-0.7-0.4c-0.2-0.1-0.5-0.2-0.8-0.2v1.4
		c-0.5,0.3-0.8,0.4-0.9,0.5c0,0-0.1,0-0.2,0.1c-0.1,0-0.1,0-0.1,0h-0.1h-0.1c-0.1,0-0.3-0.1-0.5-0.3c-0.3-0.1-0.5-0.2-0.6-0.3
		c0,0-0.1-0.1-0.2-0.2c-0.1-0.1-0.1-0.2-0.1-0.2v-3.3c-0.1-0.1-0.1-0.1-0.2-0.1H206h-0.1l-0.6,0.3h-0.1h-0.1c-0.1,0-0.2-0.1-0.4-0.2
		c-0.2-0.1-0.4-0.2-0.4-0.2c-0.1,0-0.3-0.1-0.6-0.3c-0.3-0.2-0.6-0.3-0.9-0.5c-0.3-0.2-0.7-0.4-1-0.5c-0.3-0.2-0.5-0.3-0.5-0.3
		c-0.1-0.1-0.3-0.1-0.5-0.2c-0.2-0.1-0.3-0.2-0.3-0.1l-0.2,0.1v5.2c0,0-0.1,0-0.1,0.1c0,0-0.1,0.1-0.1,0.1c-0.1,0-0.3,0.2-0.6,0.4
		v0.1c0.3,0.2,0.5,0.3,0.7,0.4c0.2,0.1,0.4,0.2,0.6,0.3c0.2,0.1,0.4,0.2,0.5,0.3c0.2,0.1,0.4,0.2,0.6,0.3c0.2,0.1,0.4,0.2,0.5,0.3
		c0.2,0.1,0.3,0.2,0.4,0.4c0.1,0.2,0.1,0.4,0.1,0.6v0.5c-0.1,0.1-0.3,0.3-0.5,0.4c-0.2,0.1-0.4,0.2-0.6,0.2c-0.3,0-0.6-0.1-0.8-0.2
		c-0.2-0.2-0.5-0.2-0.8-0.2v2.5c0,0.2-0.1,0.4-0.4,0.6c-0.2,0.2-0.5,0.2-0.6,0.2c-0.1,0-0.3,0-0.5-0.1c-0.2-0.1-0.4-0.2-0.4-0.4
		v-2.7c-0.1-0.1-0.2-0.1-0.2-0.1h-0.1c-0.2,0-0.3,0-0.5,0.1C197.6,25.8,197.4,25.9,197.3,26z"/>
</g>
</svg>
