<?xml version="1.0" encoding="utf-8"?>
<svg width="1366" height="1024" viewBox="-683 -512 1366 1024" xmlns="http://www.w3.org/2000/svg">
  <style>
svg { background:none; }

#looom {
--version:2; --tempo:120; --musicTime:0; 
}

#t0 {
--visible:1; --timeOffset:-1.192093E-07; --speed:12; --bookmarkIndex:-1; --latched:0; --playMode:0; --masked:0; --blendMode:0; --pressureEnabled:0; 
stroke:#000000; stroke-opacity:1; fill-opacity:0; stroke-width:35.70744; stroke-linecap:round; stroke-linejoin:round;
}
@keyframes t0 { 0% { opacity: 1; } 8.333333% { opacity: 0; } }
#t0 .frame { animation:t0 1s calc(var(--index) * 0.08333334s) steps(1) infinite; }

</style>
  <g id="w0" transform="translate(259.00 -350.75)" class="weave">
    <g id="t0" transform="translate(-259.00 350.75)" class="thread">
      <g id="f0" style="--index:0; opacity:1;" class="frame">
        <path d="M-193.50,-17.50L-188.50,-15.50L-183.50,-15.50L-162.50,-9.50L-154.00,-8.00L-146.00,-7.50L-129.00,-8.00L-120.50,-11.50L-82.00,-42.50L-68.00,-49.50L-53.50,-53.50L-36.00,-54.00L-26.00,-52.50L-5.00,-45.50L2.50,-44.50L10.50,-44.00L29.00,-44.50" />
        <path d="M242.50,-119.50L245.50,-115.00L252.50,-111.00L264.50,-106.00L277.50,-104.50L290.50,-104.50L297.00,-106.50L310.00,-115.00L322.00,-121.50L334.50,-125.00L348.00,-126.00L367.50,-126.00L386.50,-123.00L424.00,-123.00L436.50,-125.00" />
        <path d="M425.00,-30.50L428.00,-23.00L436.00,-18.00L449.50,-15.50L464.50,-15.50L472.00,-17.50L479.50,-22.00L504.51,-42.50L511.00,-46.50L524.01,-51.50L538.01,-54.50L560.51,-55.00L578.51,-49.50L584.51,-48.50L599.51,-48.00" />
        <path d="M-66.50,94.00L-64.00,86.00L-52.00,75.00L-24.00,58.50L-3.00,51.00L6.50,48.50L15.00,47.50L31.50,47.50L39.00,48.00L55.00,53.00L63.00,54.50L79.50,55.50L96.50,55.50L106.00,53.50L114.50,49.50L133.00,36.50L142.50,28.50" />
        <path d="M236.50,113.50L242.00,103.50L248.00,100.00L266.50,92.00L287.50,86.50L305.00,84.00L324.50,84.00L350.50,94.00L371.00,97.50L387.00,97.50L400.50,96.00L409.50,93.00L423.00,85.50L432.50,79.00" />
        <path d="M405.00,184.50L408.50,178.50L413.50,172.50L429.00,159.00L438.50,153.50L448.00,149.50L457.00,147.50L466.00,147.00L540.01,147.50L555.01,141.50L575.51,130.00L590.51,119.00L599.01,111.50" />
        <path d="M81.50,281.50L84.00,274.50L85.50,272.50L98.50,259.50L114.50,247.50L132.50,239.50L150.50,235.50L179.50,235.00L200.00,246.00L211.50,249.00L235.50,249.00L244.50,246.50L253.50,242.00L269.50,231.00" />
        <path d="M-100.50,199.50L-93.00,183.00L-86.50,176.50L-83.50,174.00L-74.50,169.00L-65.50,166.00L-48.00,163.50L-31.00,163.50L-2.00,166.50L19.50,166.00L35.50,159.50L43.50,155.00L56.50,149.50L69.50,145.00L86.00,142.50L120.00,140.00L128.50,137.50" />
        <path d="M-470.50,236.50L-464.00,239.50L-458.50,240.00L-441.50,244.50L-418.50,245.00L-410.50,244.00L-404.00,239.00L-381.50,210.50L-375.50,204.00L-362.00,194.50L-354.00,191.00L-346.50,189.00L-332.50,188.00L-297.50,188.00L-288.50,186.00" />
        <path d="M-348.00,317.50L-333.50,300.50L-318.00,290.50L-309.50,287.00L-301.00,284.50L-285.50,282.50L-247.00,283.50L-234.00,280.50L-203.50,251.50L-182.50,236.00" />
        <path d="M-184.50,366.00L-183.00,359.00L-179.00,351.50L-172.00,341.50L-163.50,332.00L-153.50,325.50L-143.50,320.50L-132.00,317.50L-121.50,316.00L-110.50,315.00L-91.50,315.00L-69.00,323.00L-62.50,324.50L-45.00,326.00L-31.00,326.00L-22.50,323.50L-12.00,319.00L0.50,312.00" />
      </g>
      <g id="f1" style="--index:1; opacity:0;" class="frame">
        <path d="M-439.50,278.50L-417.00,255.00L-406.50,245.50L-386.50,232.00L-377.50,227.50L-360.00,221.00L-336.50,216.00L-281.50,210.50L-265.00,206.50L-257.00,203.00L-248.50,198.00L-240.00,191.50L-225.00,177.00L-211.00,165.50" />
        <path d="M-253.50,291.00L-231.50,265.00L-205.00,237.50L-196.00,230.00L-176.00,215.50L-155.00,205.50L-144.00,202.50L-123.50,199.00L-84.00,195.50L-66.00,190.00L-46.50,181.50L-11.00,158.50" />
        <path d="M-55.00,102.00L-51.00,97.00L-38.00,84.50L-18.50,69.50L-8.50,63.00L12.00,53.50L31.50,47.50L53.50,43.50L83.00,40.50L91.50,38.50L99.50,35.50L108.00,31.50L125.50,19.50L142.50,3.00" />
        <path d="M102.50,139.50L108.50,133.00L148.50,98.00L157.50,91.50L166.50,86.50L176.50,81.50L198.50,74.00L259.50,58.50L279.00,52.50L300.00,44.50L320.00,34.00L337.50,21.50L345.00,15.00L357.50,-0.50" />
        <path d="M-44.00,308.50L-41.00,301.50L-21.00,275.00L-7.50,262.00L1.50,254.50L15.50,246.50L25.00,242.00L34.50,239.00L53.00,235.50L68.50,234.00L90.00,229.00L97.50,226.50L123.00,215.50" />
        <path d="M270.50,178.00L278.50,171.50L298.50,152.00L307.00,146.00L326.00,136.50L335.50,133.00L346.00,130.50L387.50,125.00L408.50,121.00L429.00,115.50L439.50,111.50L449.50,106.50L458.00,101.00L473.00,89.00L479.00,83.00" />
        <path d="M248.00,-32.00L251.50,-39.00L261.00,-52.00L267.50,-58.50L283.00,-70.00L298.50,-77.50L307.50,-80.50L324.00,-83.50L351.00,-86.00L369.00,-90.50L377.00,-93.50L384.50,-97.00L399.50,-106.00L428.00,-128.00" />
        <path d="M-324.00,429.00L-320.00,420.00L-319.50,416.50L-316.00,409.50L-309.50,401.50L-302.00,393.00L-292.50,385.50L-282.50,380.00L-261.50,374.00L-213.50,365.50L-191.00,360.50L-167.50,351.50L-151.00,342.50L-141.00,335.50" />
        <path d="M-485.00,386.50L-475.50,373.50L-470.00,367.50L-463.50,362.00L-456.50,358.00L-449.50,355.50L-435.50,352.50L-396.00,346.50L-385.50,343.00L-374.50,338.50L-351.50,326.50L-339.50,318.50" />
        <path d="M-230.00,97.50L-225.00,89.00L-220.00,84.00L-213.50,79.00L-197.50,70.50L-188.50,67.00L-168.50,62.00L-144.00,59.50L-121.00,55.50L-103.00,49.00L-93.50,44.50L-72.00,33.00L-50.00,18.50" />
        <path d="M448.50,-3.50L452.00,-11.00L462.00,-20.50L468.50,-25.00L476.00,-27.50L485.00,-29.00L519.01,-33.00L535.01,-41.00L542.01,-47.00L549.01,-56.00L568.51,-85.50" />
      </g>
      <g id="f2" style="--index:2; opacity:0;" class="frame">
        <path d="M-474.00,298.50L-446.50,275.00L-422.50,258.50L-405.50,249.50L-379.50,242.00L-354.50,237.00L-323.50,236.50L-307.00,235.00L-290.00,228.00L-281.50,223.00L-266.50,210.50L-252.00,196.00" />
        <path d="M-265.50,119.50L-263.00,114.50L-258.50,109.50L-237.50,90.50L-229.50,84.50L-212.00,75.00L-192.00,67.00L-181.50,65.00L-132.00,62.00L-120.00,60.00L-104.00,55.00L-96.00,50.50L-80.00,39.50L-72.00,32.00" />
        <path d="M-86.50,127.50L-84.50,120.50L-81.50,116.00L-62.50,97.50L-48.00,82.00L-31.00,69.50L-12.50,60.00L6.50,53.00L15.50,50.50L31.50,48.50L63.50,48.00L82.00,46.00L101.00,39.50L111.00,34.00L121.50,27.00L131.50,19.00" />
        <path d="M237.50,-21.50L245.00,-32.50L259.50,-46.50L278.50,-59.00L289.50,-65.00L311.00,-74.50L322.00,-78.00L332.50,-80.50L381.50,-87.00L400.50,-92.50L410.00,-96.50L429.00,-106.50L447.00,-118.50L454.50,-125.50" />
        <path d="M438.00,11.00L448.00,-5.50L457.50,-15.50L473.50,-26.00L492.50,-34.50L513.01,-41.00L531.01,-44.00L562.01,-47.00L569.51,-49.50L584.01,-57.00L597.01,-66.50L611.01,-80.00L617.51,-88.50L622.01,-96.50" />
        <path d="M87.50,145.00L89.50,138.50L93.00,132.00L108.50,113.00L118.00,104.00L128.00,96.50L150.50,84.00L172.50,74.50L196.50,67.50L238.50,62.50L259.50,59.00L280.50,54.00L303.00,47.00L315.50,41.00L327.50,33.50L339.00,25.00L349.00,16.00" />
        <path d="M-240.00,278.50L-236.50,271.00L-232.00,264.00L-216.00,246.50L-206.50,237.50L-185.50,223.00L-174.50,217.50L-163.00,212.50L-150.50,208.50L-138.50,206.00L-93.50,201.00L-69.50,196.00L-57.50,192.00L-32.00,181.00L-7.00,167.00L4.00,160.00" />
        <path d="M-478.00,393.00L-476.50,387.00L-472.50,380.50L-466.00,372.50L-457.00,363.50L-447.00,355.00L-437.00,349.00L-427.50,345.50L-417.50,343.50L-400.50,342.00L-383.00,341.50L-374.50,339.50L-354.50,331.00L-329.00,317.50" />
        <path d="M-314.50,415.00L-281.00,376.00L-268.50,363.00L-249.50,346.50L-237.50,338.50L-226.50,332.50L-204.00,326.50L-193.00,325.00L-163.00,324.00L-144.00,321.00L-129.50,315.00L-105.50,297.50" />
        <path d="M-23.00,310.50L-20.00,304.00L-19.00,298.50L-4.50,275.50L10.00,263.00L17.50,257.50L26.50,252.50L46.00,243.50L64.00,237.50L121.00,229.00L145.00,221.50" />
        <path d="M236.00,203.00L245.00,188.50L259.50,173.50L279.50,159.50L315.50,142.50L336.00,136.00L351.00,132.50L372.00,128.50L415.50,122.00L428.00,119.50L451.50,113.00L463.50,108.50L476.00,102.50L486.50,95.00L507.01,77.00" />
      </g>
      <g id="f3" style="--index:3; opacity:0;" class="frame">
        <path d="M-504.01,317.50L-484.50,291.50L-472.50,280.00L-465.50,274.50L-445.50,261.50L-415.00,247.50L-401.00,243.50L-369.00,240.50L-319.00,241.50L-300.00,227.50L-294.00,222.00L-270.50,204.00L-261.00,198.00" />
        <path d="M-275.00,119.50L-264.00,110.50L-252.00,98.00L-237.00,85.00L-228.50,79.00L-220.00,74.50L-211.00,70.50L-193.00,66.00L-175.00,64.50L-159.00,62.00L-137.00,57.50L-120.00,52.50L-111.00,49.00L-102.50,44.50L-93.50,39.00L-78.50,27.50L-70.50,22.50L-53.50,14.00" />
        <path d="M-67.00,116.50L-62.50,108.50L-62.50,106.50L-59.00,101.50L-47.50,89.00L-24.00,73.00L1.50,62.00L34.00,52.50L50.50,48.50L102.50,43.00L110.50,40.50L118.00,37.50L129.50,29.00L139.50,18.50L154.00,6.50" />
        <path d="M234.50,-33.50L238.00,-44.00L248.50,-59.50L256.50,-69.00L264.50,-77.50L274.00,-85.50L295.50,-98.50L317.00,-107.00L338.00,-111.00L358.00,-113.00L385.50,-113.00L403.50,-114.00L423.00,-116.50L433.50,-119.50L444.50,-124.00L455.50,-129.50L480.00,-145.00" />
        <path d="M451.50,-4.50L451.50,-9.50L454.00,-15.00L459.50,-21.50L467.50,-29.00L476.50,-35.50L486.00,-41.00L507.01,-48.50L527.51,-54.00L537.51,-56.00L582.01,-60.50L591.01,-62.00L601.01,-65.00L619.51,-73.00L627.51,-78.50L637.51,-87.50" />
        <path d="M93.50,148.50L94.00,145.00L99.00,138.00L112.50,123.50L123.00,114.00L140.00,103.00L168.50,89.50L193.00,82.50L279.00,70.50L290.50,68.50L315.50,61.50L328.50,55.00L341.00,46.50L352.00,36.00" />
        <path d="M-233.00,273.00L-227.50,264.00L-201.00,235.00L-191.00,225.50L-180.50,218.00L-169.50,211.50L-147.00,201.50L-129.50,196.50L-45.00,178.50L1.00,165.50L11.50,160.00" />
        <path d="M-461.00,391.00L-458.50,383.00L-451.00,369.50L-445.50,362.00L-439.00,354.50L-423.00,342.00L-407.00,335.00L-392.50,333.00L-374.50,333.00L-360.50,332.00L-344.00,328.50L-324.50,321.50L-314.50,316.50L-293.50,303.50" />
        <path d="M-296.50,390.50L-288.00,378.50L-271.00,359.50L-260.50,350.50L-249.50,344.00L-237.50,338.50L-213.50,329.50L-200.50,325.50L-188.00,323.00L-166.00,320.00L-146.50,320.00L-126.00,318.50L-115.00,315.50L-103.00,310.00L-79.50,293.00" />
        <path d="M15.00,298.00L15.50,288.00L18.00,282.50L26.50,271.00L34.00,264.50L55.50,250.00L82.00,237.50L99.00,233.00L108.00,232.50L134.50,228.00L155.00,222.00L166.00,218.00L186.50,206.00" />
        <path d="M280.50,213.50L283.50,204.00L287.00,197.50L298.50,183.00L316.50,167.50L338.50,152.50L365.00,139.50L376.00,135.50L392.50,131.50L461.50,119.50L487.00,112.00L499.50,107.00L511.00,101.00L522.51,93.50L545.51,74.50" />
      </g>
      <g id="f4" style="--index:4; opacity:0;" class="frame">
        <path d="M-241.50,99.50L-238.50,91.50L-231.50,85.00L-222.50,79.00L-210.50,72.50L-187.00,62.00L-163.00,55.00L-152.50,50.50L-130.50,44.00L-76.50,33.00L-66.50,28.50L-56.50,22.50L-46.00,13.50L-36.50,4.00L-28.50,-5.50" />
        <path d="M-56.00,108.50L-51.50,98.50L-35.50,82.00L-20.50,70.50L-10.00,64.50L0.50,59.50L20.00,52.50L40.00,48.00L78.50,43.00L96.00,38.00L113.50,29.50L132.00,17.50L156.50,-8.50" />
        <path d="M234.00,-31.50L236.50,-37.50L241.00,-44.00L255.00,-61.00L272.00,-77.00L282.00,-84.50L302.50,-98.00L323.00,-108.00L343.50,-112.00L353.00,-112.50L371.00,-112.50L395.50,-108.00L427.50,-108.00L435.50,-110.50L444.00,-114.50L462.00,-125.50L472.00,-133.00L492.50,-146.00" />
        <path d="M441.50,-1.50L443.50,-5.00L465.00,-23.50L475.50,-31.50L486.50,-38.00L497.50,-42.50L509.01,-45.50L528.51,-49.00L600.51,-49.50L610.01,-50.00L619.51,-53.50L628.01,-59.50L637.51,-68.50L653.01,-86.00" />
        <path d="M110.00,138.00L115.50,129.50L119.00,125.50L126.00,118.00L136.50,108.50L148.00,98.50L160.00,89.50L172.50,82.50L198.00,71.50L211.50,67.00L224.50,64.00L249.00,61.00L289.50,59.50L299.50,58.00L320.00,52.50L340.50,44.00L350.50,38.50L367.00,25.00L373.50,16.50" />
        <path d="M266.50,203.00L266.00,195.00L267.00,191.50L273.00,183.50L282.00,173.50L292.00,164.00L315.50,145.50L328.00,137.00L346.00,126.50L358.00,121.00L384.00,114.50L396.00,113.00L417.00,111.50L469.50,111.50L481.50,110.50L499.50,106.00L517.01,99.00L533.51,91.50L548.51,83.50L567.01,72.00" />
        <path d="M-218.50,257.50L-215.00,246.50L-210.50,238.50L-204.00,230.00L-196.50,223.00L-179.50,212.00L-170.00,207.50L-160.00,204.50L-150.50,202.00L-131.00,199.00L-94.00,197.50L-68.00,197.50L-50.00,195.00L-40.50,192.00L-32.00,187.50L-23.50,181.50L2.50,157.50L12.50,149.50L36.50,135.00" />
        <path d="M-19.50,284.50L-4.50,269.50L8.50,259.50L24.00,251.00L32.00,248.00L48.00,244.50L70.00,242.00L108.50,235.00L154.00,222.50L163.50,218.50L180.00,208.50L187.00,202.50L193.50,195.50" />
        <path d="M-308.50,370.00L-300.50,368.00L-260.00,368.00L-244.00,363.50L-237.50,361.00L-218.50,349.00L-201.00,334.50L-182.50,322.50L-174.50,317.50L-157.00,309.00L-139.00,303.00L-92.00,295.50L-74.00,290.00" />
        <path d="M-475.50,383.00L-472.50,367.50L-468.50,361.50L-463.00,354.50L-456.00,347.50L-447.50,342.00L-437.50,338.50L-418.00,335.00L-366.00,331.50L-337.50,324.50L-317.50,315.50L-307.00,308.00L-299.00,300.50" />
        <path d="M-519.01,314.50L-514.01,302.00L-509.01,293.00L-501.50,283.50L-492.00,273.50L-470.00,260.00L-432.50,248.00L-409.00,244.50L-398.00,242.00L-355.50,239.00L-337.50,237.00L-319.00,233.00L-300.00,225.00L-290.50,218.50L-281.00,211.00L-263.50,193.50" />
      </g>
      <g id="f5" style="--index:5; opacity:0;" class="frame">
        <path d="M-258.50,69.50L-251.50,68.00L-211.00,68.00L-193.00,65.50L-175.50,57.50L-166.50,52.00L-115.00,14.50L-103.00,8.00L-91.00,3.50L-82.00,2.00L-64.50,0.50L-46.00,0.50L-27.50,-1.00L-16.50,-4.00L8.50,-15.00" />
        <path d="M-67.50,79.00L-60.00,76.50L-23.50,76.50L-2.50,73.50L7.00,70.00L15.50,65.00L24.00,59.00L48.00,38.50L63.00,28.00L70.00,25.00L80.50,22.50L109.50,22.50L124.50,18.50L143.00,11.50" />
        <path d="M221.50,-59.00L226.50,-57.00L240.50,-57.00L260.50,-62.50L271.50,-66.50L283.50,-71.50L296.00,-78.00L337.00,-102.50L350.50,-108.00L375.00,-115.00L387.00,-117.50L410.50,-119.50L454.50,-119.50L476.00,-121.50L498.50,-129.00L523.01,-139.50" />
        <path d="M419.50,-9.50L443.00,-25.00L467.50,-36.50L484.50,-39.50L496.50,-40.00L534.51,-40.00L553.01,-38.50L579.01,-39.00L607.01,-46.50L629.51,-55.50L650.51,-69.50" />
        <path d="M100.00,130.00L127.50,102.00L136.50,94.50L154.50,83.00L164.00,79.00L174.00,75.50L194.50,72.00L251.50,70.50L269.00,69.00L307.50,63.00L328.50,57.50L339.00,53.00L349.00,47.00L370.00,30.50" />
        <path d="M260.00,157.00L264.00,161.00L277.00,161.00L286.50,160.00L310.00,155.00L323.00,151.50L347.50,142.50L384.50,127.00L408.50,120.00L420.00,118.00L444.00,115.50L478.50,115.00L499.50,113.00L521.51,108.50L533.51,105.50L558.51,96.00L571.01,90.00L593.51,77.00" />
        <path d="M-0.50,251.00L9.50,242.00L17.00,237.00L26.50,232.50L37.50,228.50L48.50,226.00L58.50,225.00L68.50,224.50L86.00,225.00L94.00,226.50L126.00,235.50L135.50,237.00L155.00,237.00L164.50,235.50L175.00,230.50L184.50,224.50L204.00,209.50L214.00,200.50" />
        <path d="M-192.00,243.00L-186.00,228.50L-177.50,214.50L-170.50,206.00L-163.00,199.00L-145.00,188.50L-134.50,184.50L-124.50,182.50L-49.00,176.00L-37.00,174.00L-9.50,167.00L15.00,157.50L26.50,151.50L46.50,136.50" />
        <path d="M-509.51,264.00L-501.50,270.50L-488.50,275.00L-446.50,275.50L-433.00,271.50L-420.00,265.00L-400.00,249.00L-379.50,227.50L-370.50,219.50L-362.00,213.50L-353.00,209.50L-344.50,206.50L-327.00,204.00L-283.00,203.50L-273.00,202.00L-250.50,195.00L-228.00,185.50" />
        <path d="M-475.50,368.50L-463.50,366.50L-424.00,366.00L-414.50,361.00L-405.50,354.00L-379.50,326.00L-371.00,319.50L-358.00,311.50L-349.50,308.50L-341.00,306.50L-297.00,303.00L-277.50,300.50L-256.00,295.00" />
        <path d="M-278.00,378.50L-273.50,381.00L-267.50,380.50L-242.00,369.50L-230.50,363.50L-220.00,355.50L-198.00,336.00L-187.00,328.00L-165.50,317.50L-144.00,312.00L-124.50,308.50L-115.50,307.50L-74.00,307.50L-65.00,305.50L-55.50,302.00" />
      </g>
      <g id="f6" style="--index:6; opacity:0;" class="frame">
        <path d="M-236.50,40.50L-213.00,48.00L-203.50,49.50L-180.00,49.50L-167.00,45.50L-154.00,39.50L-117.50,16.50L-105.50,10.50L-70.50,-3.50L-49.50,-8.50L-4.50,-8.50L6.50,-10.00L19.00,-14.50L60.50,-33.50" />
        <path d="M222.00,-96.00L229.00,-86.00L244.00,-79.00L254.00,-75.50L265.00,-73.00L287.00,-72.00L299.00,-76.00L336.50,-102.00L347.50,-108.50L358.00,-113.50L379.50,-120.50L400.00,-125.00L421.00,-127.50L466.00,-128.50L490.50,-130.50L504.00,-132.50" />
        <path d="M430.00,-28.00L447.50,-6.00L454.50,1.00L462.00,6.50L470.00,10.50L478.00,12.50L485.50,12.50L493.50,11.00L512.50,-7.00L521.01,-14.00L535.51,-22.50L543.01,-25.50L559.01,-30.00L574.51,-32.50L605.51,-34.00L622.51,-39.50L644.51,-49.00" />
        <path d="M290.50,159.50L301.00,144.50L310.00,137.00L320.00,129.50L332.50,123.00L344.50,118.50L356.00,116.00L368.50,114.50L386.00,113.00L408.00,113.00L439.50,111.00L469.00,106.50L491.50,102.50L517.51,96.00L545.01,87.50L558.01,81.50" />
        <path d="M110.00,113.00L116.00,114.00L124.00,109.00L135.00,100.50L148.00,89.00L160.50,79.50L171.00,73.50L180.50,69.50L190.50,66.50L200.50,65.00L221.00,64.00L263.50,64.00L281.00,66.50L300.50,67.00L311.50,64.50L322.50,60.00L334.50,52.50" />
        <path d="M-73.00,70.50L-63.00,73.00L-56.00,76.00L-46.50,78.00L-22.00,78.50L-9.00,76.00L17.50,63.50L54.50,38.00L66.00,31.00L76.00,27.00L86.50,23.50L96.50,21.50L154.00,15.50L177.00,11.00" />
        <path d="M-181.50,185.00L-180.00,196.00L-177.50,201.50L-173.00,205.50L-165.50,208.50L-157.50,209.50L-138.00,209.00L-127.00,205.50L-71.50,169.50L-60.50,165.00L-50.50,162.00L-40.50,160.00L-23.00,158.50L-15.50,158.50L6.00,162.00L35.50,162.00L48.00,158.50" />
        <path d="M-514.01,254.00L-509.51,259.50L-506.51,261.50L-500.50,264.50L-492.00,267.00L-481.50,268.50L-470.50,268.50L-451.50,266.50L-439.50,260.00L-427.50,251.50L-399.50,228.00L-389.00,221.50L-379.00,217.50L-351.50,210.50L-342.50,209.50L-278.50,209.00L-250.00,207.00L-216.00,200.00" />
        <path d="M-13.00,253.50L-7.00,245.00L0.00,238.00L9.50,229.50L20.50,221.50L43.00,214.00L55.00,211.50L76.50,209.50L105.00,209.50L114.00,211.50L140.50,220.00L150.00,221.50L171.00,222.00L180.50,220.00L190.50,215.00L200.50,207.00L209.00,198.50" />
        <path d="M-270.50,382.50L-262.50,375.00L-255.50,366.00L-245.00,355.50L-234.50,347.00L-223.00,341.50L-212.50,339.00L-191.50,337.50L-164.50,338.00L-146.50,341.50L-102.50,341.50L-91.00,338.00L-79.00,332.00L-67.00,324.50L-58.50,317.00" />
        <path d="M-456.00,333.00L-449.50,338.50L-439.50,341.00L-424.00,342.00L-401.00,341.50L-394.00,339.50L-383.50,334.50L-352.50,310.00L-333.00,301.00L-313.00,297.50L-283.00,294.50L-237.50,294.50L-223.00,293.50" />
      </g>
      <g id="f7" style="--index:7; opacity:0;" class="frame">
        <path d="M-219.50,16.00L-213.50,20.00L-187.00,24.00L-158.50,24.00L-147.50,22.50L-136.50,18.00L-119.50,7.50L-96.00,-8.50L-84.00,-15.50L-72.00,-21.00L-50.50,-26.00L-34.00,-27.00L-19.00,-27.00L9.00,-25.00L29.00,-25.00L39.50,-26.00L65.50,-33.50L96.50,-44.50" />
        <path d="M224.50,-93.50L227.00,-81.00L231.00,-75.00L235.50,-71.50L243.50,-67.00L253.50,-64.00L264.50,-62.00L288.50,-62.00L302.00,-68.00L330.00,-83.50L358.00,-97.50L370.00,-102.00L394.50,-108.00L431.50,-113.00L454.00,-113.50L487.50,-113.00L499.00,-111.00L524.01,-109.00" />
        <path d="M445.50,-15.50L449.00,-6.00L452.00,-2.00L458.00,1.50L466.00,4.00L481.00,5.50L492.00,5.50L503.00,3.50L508.00,1.00L541.01,-20.50L551.51,-26.00L561.51,-30.00L581.01,-35.00L600.01,-37.00L645.01,-38.00" />
        <path d="M-94.00,81.50L-88.50,84.00L-76.50,84.50L-71.50,85.50L-46.00,85.50L-32.50,84.50L-19.00,80.50L-7.00,74.50L44.00,43.00L56.50,37.00L67.00,34.00L77.00,32.50L106.00,32.00L134.50,34.50L157.00,34.00L196.00,21.00" />
        <path d="M108.50,128.00L125.50,128.00L137.50,126.50L151.50,123.00L166.00,118.00L181.00,111.00L225.00,84.00L238.00,77.50L250.00,73.00L262.00,70.50L273.00,69.50L343.50,68.50L365.00,64.50L377.00,60.00" />
        <path d="M339.50,158.00L355.50,142.00L367.50,132.50L381.50,124.00L395.00,117.50L409.00,113.00L423.00,111.00L470.00,111.00L489.50,115.00L499.50,116.00L535.01,116.00L547.01,113.00L559.51,107.00L572.01,98.50" />
        <path d="M2.50,283.00L5.00,276.00L5.00,273.50L16.50,259.00L25.00,252.00L35.00,245.50L45.50,240.50L56.50,237.00L67.50,234.00L78.00,232.50L103.50,232.50L118.00,236.00L141.50,240.00L170.00,240.50L181.00,239.00L209.00,230.00L239.00,215.50" />
        <path d="M-153.00,185.50L-146.50,195.50L-140.00,200.00L-132.00,204.00L-121.50,207.00L-110.50,208.50L-87.00,208.00L-76.00,202.00L-65.00,193.50L-42.50,174.00L-31.50,167.00L-21.50,162.00L-2.50,157.00L17.00,154.00L66.50,148.50" />
        <path d="M-495.50,244.50L-487.00,251.00L-480.00,253.00L-461.00,253.50L-442.50,248.00L-411.00,228.00L-393.50,218.00L-376.50,211.50L-355.00,205.50L-343.50,203.00L-321.50,200.50L-274.50,200.50L-258.00,199.50" />
        <path d="M-426.50,362.50L-401.50,328.00L-390.00,317.50L-378.50,310.00L-367.00,305.50L-354.00,303.00L-332.50,302.00L-313.50,302.00L-286.50,305.50L-254.00,305.00L-240.50,299.00" />
        <path d="M-242.50,385.00L-227.50,365.00L-212.00,349.00L-206.50,344.50L-194.50,339.50L-176.00,337.50L-154.00,337.50L-144.00,338.50L-120.00,344.00L-100.50,345.50L-88.50,345.50L-69.50,344.00L-61.00,341.50L-44.00,333.50" />
      </g>
      <g id="f8" style="--index:8; opacity:0;" class="frame">
        <path d="M-497.00,227.00L-486.50,228.50L-467.00,238.50L-458.50,240.50L-449.50,242.00L-432.00,242.00L-424.50,240.50L-401.50,229.50L-360.50,204.50L-342.50,196.00L-328.00,192.00L-268.50,188.50L-258.50,187.00L-238.50,180.00" />
        <path d="M-221.50,13.50L-141.00,15.00L-128.00,11.00L-115.00,4.50L-88.50,-12.50L-67.00,-24.50L-45.50,-32.50L-23.00,-37.50L-0.50,-39.50L63.00,-40.00" />
        <path d="M228.00,-107.00L231.50,-98.50L233.50,-96.50L248.50,-88.50L258.50,-86.00L269.00,-84.50L280.00,-84.50L291.00,-86.00L349.50,-110.50L372.50,-116.00L405.00,-119.50L435.50,-120.00L445.00,-119.00L466.00,-115.00L477.50,-114.50" />
        <path d="M425.50,-23.00L427.50,-15.50L434.00,-9.50L440.50,-5.50L448.50,-3.00L466.00,-3.00L476.00,-5.50L505.00,-21.00L524.51,-30.00L546.01,-36.50L564.51,-38.50L579.51,-38.50L593.51,-37.00L622.51,-37.50L634.01,-41.50" />
        <path d="M-82.00,108.00L-71.50,94.00L-55.00,80.00L-37.50,69.50L-19.50,62.00L-2.50,58.00L22.50,55.50L86.00,55.00L107.50,52.50L125.50,46.00L171.50,21.00" />
        <path d="M167.50,125.50L190.50,106.50L200.50,99.50L210.00,93.50L231.00,83.50L241.50,80.00L262.00,77.00L335.00,76.50L343.50,74.50L362.00,65.00L372.50,59.00L382.50,51.50" />
        <path d="M328.50,181.50L332.00,174.00L346.00,159.50L355.00,151.50L364.00,146.00L385.00,138.50L407.00,133.00L438.50,129.00L468.50,128.50L502.00,130.00L534.51,129.50L545.01,126.50L561.51,118.00L572.01,110.50" />
        <path d="M-143.50,217.50L-140.00,221.50L-128.00,222.00L-121.00,222.00L-113.50,218.50L-105.50,212.00L-83.50,190.00L-66.00,176.50L-57.50,171.50L-48.50,167.50L-24.00,159.50L-8.00,157.00L18.00,157.50L31.50,159.50L41.50,160.00L66.00,159.00L79.50,154.50L93.00,147.50" />
        <path d="M36.00,294.00L40.50,283.50L45.50,276.00L57.00,265.00L61.50,261.50L78.50,253.50L104.50,245.00L145.50,239.50L186.00,239.50L208.00,241.00L230.00,241.00L240.00,237.00L250.50,231.00L279.00,208.50" />
        <path d="M-235.00,400.50L-233.00,393.00L-233.00,389.00L-229.00,381.00L-216.50,363.00L-209.00,355.50L-192.00,343.00L-175.00,335.50L-159.00,332.00L-126.00,331.50L-97.50,335.50L-76.50,339.50L-53.50,340.00L-40.00,338.00L-25.00,330.50" />
        <path d="M-435.50,356.50L-431.00,344.00L-426.00,334.50L-411.50,315.00L-398.00,307.00L-388.00,303.50L-372.00,301.00L-343.50,300.50L-315.50,307.00L-306.00,308.50L-275.00,309.00L-263.50,305.00L-252.00,298.50L-241.00,290.50L-230.00,281.00" />
      </g>
      <g id="f9" style="--index:9; opacity:0;" class="frame">
        <path d="M-188.50,47.00L-183.50,40.00L-163.00,19.00L-154.00,11.50L-136.50,-0.50L-127.00,-5.00L-116.50,-8.50L-96.00,-13.00L-45.00,-16.00L-13.00,-19.00L8.00,-23.00L17.50,-26.50L26.50,-31.00L39.00,-42.50L51.00,-56.00" />
        <path d="M232.50,-64.00L235.50,-71.50L238.00,-75.50L242.50,-79.50L249.00,-83.50L264.50,-89.00L288.50,-93.50L321.00,-93.50L367.00,-86.50L418.00,-86.00L429.00,-90.00L439.50,-95.50L449.50,-102.50L478.00,-131.00" />
        <path d="M441.50,14.00L449.50,2.50L456.00,-2.50L465.00,-8.00L475.00,-12.50L485.50,-15.00L522.01,-16.00L558.01,-12.50L578.51,-12.50L588.51,-13.50L608.51,-23.00L618.51,-29.50L644.01,-49.50" />
        <path d="M-45.00,81.00L-39.00,71.50L-31.00,63.00L-18.00,55.00L5.00,44.50L17.00,41.00L41.00,38.00L63.50,38.00L104.50,42.00L137.00,42.00L160.50,33.50L172.00,26.50L194.00,9.00" />
        <path d="M184.50,131.00L190.00,119.00L195.50,111.50L203.50,103.50L212.50,96.00L224.00,89.50L235.00,85.50L246.50,82.50L257.50,81.00L279.50,79.50L300.50,79.50L331.50,82.00L354.50,82.00L366.00,80.00L377.00,74.50L389.00,66.50" />
        <path d="M374.50,173.50L385.00,157.00L402.00,140.00L411.50,132.50L421.50,126.50L441.50,118.00L459.50,115.50L485.50,115.00L494.00,115.50L503.50,118.00L522.51,120.50L541.51,121.50L562.51,121.00L574.01,118.50L598.01,108.50" />
        <path d="M-107.50,220.50L-104.50,202.50L-98.50,193.50L-91.00,184.50L-74.00,171.50L-62.50,166.00L-43.00,161.00L-31.00,160.00L2.50,159.50L24.00,160.50L57.00,160.50L79.50,154.00L91.50,149.00L113.00,137.50" />
        <path d="M70.00,281.00L73.00,272.50L89.50,255.50L108.50,244.50L129.00,237.50L154.00,235.00L165.50,235.00L176.00,236.50L218.00,247.00L229.00,248.00L254.50,248.00L266.50,246.50L277.50,241.50L288.50,234.50L298.00,226.00L306.50,216.00" />
        <path d="M-211.00,385.50L-208.00,376.00L-203.00,366.00L-194.00,356.00L-183.00,346.50L-172.00,340.50L-159.00,336.50L-146.50,334.00L-111.50,332.50L-101.00,334.50L-74.00,343.00L-55.00,345.50L-34.00,345.50L-21.50,343.00L2.50,330.50L14.50,322.50" />
        <path d="M-420.00,359.00L-419.50,347.50L-414.50,336.00L-406.50,325.50L-395.00,315.50L-381.50,307.50L-368.00,302.00L-340.50,298.00L-328.00,298.00L-314.50,299.00L-278.00,305.50L-264.50,306.50L-238.00,306.50L-224.00,303.50L-210.00,297.00" />
        <path d="M-484.50,275.50L-485.00,268.50L-484.00,259.00L-478.50,248.50L-470.50,236.50L-459.50,226.00L-447.50,218.00L-435.50,214.00L-408.50,211.00L-373.50,211.00L-363.50,212.50L-353.00,213.00L-307.50,213.00L-296.50,212.00L-271.00,207.00L-258.50,203.00L-244.50,198.00L-229.00,189.00" />
      </g>
      <g id="f10" style="--index:10; opacity:0;" class="frame">
        <path d="M-223.00,20.00L-207.00,21.50L-199.00,23.50L-171.50,23.50L-158.50,16.00L-151.50,11.00L-124.50,-13.00L-110.00,-23.00L-102.00,-27.00L-86.00,-32.50L-69.50,-35.50L-16.50,-42.50L6.50,-47.50L21.50,-53.50L48.50,-67.50" />
        <path d="M214.50,-52.50L225.50,-60.00L234.00,-68.50L250.00,-80.50L256.00,-84.50L269.50,-91.00L296.00,-96.00L321.00,-96.00L339.00,-93.50L357.50,-93.50L370.00,-98.50L391.50,-113.00L406.50,-118.50L422.00,-121.00L460.50,-123.00L480.50,-128.00" />
        <path d="M438.50,13.50L441.50,5.00L444.50,0.00L455.50,-11.00L463.00,-16.50L470.50,-20.50L478.50,-24.50L486.50,-27.00L507.01,-31.00L523.01,-30.50L533.51,-28.50L545.51,-27.50L571.51,-28.00L578.51,-32.00L592.51,-38.00L608.01,-42.00L627.51,-43.50" />
        <path d="M-87.50,102.50L-56.00,78.50L-37.00,68.00L-16.00,59.00L6.00,53.00L17.00,51.50L26.50,51.00L62.00,51.00L70.00,52.00L98.50,51.50L118.50,44.50L128.00,39.50L147.50,25.50" />
        <path d="M193.50,121.50L196.50,111.00L209.50,97.00L219.50,89.00L229.50,83.00L239.50,78.50L250.00,75.50L268.50,74.00L284.00,74.50L311.00,83.50L322.00,83.50L327.50,82.00L338.50,76.50L353.50,72.00L363.00,70.00L387.50,67.00L399.50,64.50" />
        <path d="M371.50,169.50L376.50,162.00L385.00,152.50L392.50,145.50L409.00,135.50L427.50,129.00L437.50,126.50L461.50,124.00L482.00,124.00L509.01,125.50L554.01,125.50L565.51,123.00L578.51,116.50" />
        <path d="M-119.50,209.00L-117.50,200.50L-116.00,197.50L-110.50,191.50L-102.50,185.50L-93.00,180.00L-82.00,175.50L-71.50,172.00L-51.50,169.00L4.00,168.50L24.00,164.50L42.50,158.00L61.50,149.00L99.50,123.00L108.50,119.00L117.00,118.00L126.50,118.00" />
        <path d="M68.00,261.50L74.50,252.00L80.50,248.00L98.00,241.50L118.00,237.00L138.00,235.00L154.00,235.00L191.50,248.00L200.00,250.00L218.50,250.50L228.50,250.00L278.50,233.00L291.50,230.00L310.50,229.00" />
        <path d="M-230.50,366.50L-212.00,366.00L-199.00,362.00L-187.00,356.50L-155.00,335.00L-139.50,328.50L-124.00,325.00L-100.50,324.50L-70.50,331.00L-43.50,331.50L-21.00,329.50L7.00,324.50" />
        <path d="M-420.50,334.50L-411.00,332.50L-398.50,332.00L-393.50,329.50L-369.00,312.50L-356.00,305.50L-343.00,303.00L-286.00,303.00L-269.00,299.50L-247.50,293.00L-227.50,283.50" />
        <path d="M-492.00,232.00L-483.50,231.50L-470.50,235.00L-452.50,238.50L-431.00,239.00L-423.00,236.00L-419.50,233.50L-412.50,227.50L-398.50,213.00L-391.50,207.50L-384.00,203.00L-377.00,200.00L-352.50,196.50L-327.50,196.50L-319.50,198.50L-312.00,199.00L-286.00,199.00L-276.00,197.50L-263.00,193.50" />
      </g>
      <g id="f11" style="--index:11; opacity:0;" class="frame">
        <path d="M-214.50,1.00L-211.00,3.50L-204.00,4.00L-191.00,6.50L-168.00,6.50L-160.00,3.00L-144.00,-7.00L-115.00,-27.00L-92.50,-36.50L-85.00,-37.50L-60.00,-38.00L-53.00,-36.00L-33.00,-33.00L-12.50,-33.00L-4.50,-35.00L24.00,-48.00" />
        <path d="M225.50,-96.00L238.00,-98.00L252.00,-102.50L267.50,-103.50L283.00,-103.50L297.00,-99.50L303.50,-98.50L317.00,-98.50L323.50,-99.50L353.00,-115.00L374.50,-122.50L390.50,-124.00L406.00,-124.00L435.50,-122.00L465.00,-122.00" />
        <path d="M431.00,-28.50L436.50,-24.50L447.00,-19.00L457.50,-15.00L469.00,-13.50L477.00,-13.50L485.00,-15.50L514.01,-34.50L521.51,-38.00L535.51,-43.50L549.01,-47.00L562.01,-48.00L582.51,-48.00L603.51,-44.50L620.01,-44.50" />
        <path d="M-90.50,95.00L-84.50,87.00L-69.50,75.00L-62.00,70.00L-46.00,65.00L-34.50,63.50L-23.50,63.50L7.00,67.50L37.50,67.50L44.50,66.00L79.00,50.50L89.00,47.50L112.00,43.50L144.00,41.50L162.00,39.00L184.00,30.50L197.00,24.00" />
        <path d="M199.00,111.00L202.00,103.50L215.00,92.00L237.00,79.50L248.00,76.00L269.00,72.50L291.00,72.50L319.50,81.50L332.50,83.00L340.50,83.00L349.00,81.50L359.00,77.00L371.00,69.50" />
        <path d="M377.50,158.50L383.50,149.50L389.50,142.50L398.00,133.50L407.00,125.50L416.50,119.00L426.00,114.50L445.50,109.50L454.00,108.50L470.00,108.50L484.00,113.00L511.51,123.50L519.01,125.00L527.01,125.50L544.01,125.50L552.51,124.00L577.51,110.00" />
        <path d="M74.50,274.00L79.00,261.50L84.50,254.00L91.50,247.50L110.50,237.00L120.00,233.50L130.00,231.00L147.00,228.00L161.00,228.00L167.00,229.00L172.50,232.00L192.50,246.00L204.00,248.50L238.00,248.50L259.50,244.00L295.50,231.50" />
        <path d="M-117.00,206.00L-116.00,193.50L-112.50,187.00L-107.50,181.50L-100.50,176.00L-93.50,172.00L-77.50,169.50L-62.50,169.50L-37.00,178.00L-22.50,179.50L3.50,179.00L13.00,175.00L62.50,147.50L73.50,143.50L84.50,141.00L97.00,139.50L120.00,138.00L132.00,138.00" />
        <path d="M-479.50,267.50L-464.50,244.00L-459.00,237.00L-448.00,226.50L-436.00,220.50L-423.00,217.50L-408.00,215.50L-344.50,215.50L-336.50,212.50L-321.50,204.00L-314.00,199.50L-297.00,187.00" />
        <path d="M-391.00,335.00L-386.50,326.50L-385.50,322.50L-379.50,315.00L-365.50,304.50L-357.50,301.00L-350.00,299.00L-335.00,297.00L-316.50,297.00L-298.00,300.50L-264.00,300.50L-257.00,298.00L-249.50,293.50L-242.50,288.00L-222.50,265.00L-206.50,252.00L-197.00,247.50L-177.00,240.50" />
        <path d="M-203.00,385.00L-203.50,381.50L-196.50,369.00L-193.00,363.50L-180.50,349.00L-167.00,339.50L-148.00,331.00L-135.00,329.00L-117.50,328.00L-111.00,329.50L-100.00,336.00L-88.50,341.00L-81.50,342.50L-60.00,342.00L-24.00,332.00L1.00,323.00L15.50,315.50" />
      </g>
    </g>
  </g>
</svg>