<?xml version="1.0" encoding="utf-8"?>
<!-- Generator: Adobe Illustrator 25.2.0, SVG Export Plug-In . SVG Version: 6.00 Build 0)  -->
<svg version="1.1" id="Layer_1" xmlns="http://www.w3.org/2000/svg" xmlns:xlink="http://www.w3.org/1999/xlink" x="0px" y="0px"
	 viewBox="0 0 751.8 841.3" style="enable-background:new 0 0 751.8 841.3;" xml:space="preserve">
<style type="text/css">
	.st0{clip-path:url(#SVGID_2_);}
	.st1{fill:url(#SVGID_3_);}
	.st2{fill:url(#SVGID_4_);}
	.st3{fill:url(#SVGID_5_);}
	.st4{fill:url(#SVGID_6_);}
	.st5{fill:#4BDDAD;}
	.st6{fill:url(#SVGID_7_);}
	.st7{clip-path:url(#SVGID_9_);}
	.st8{fill:url(#SVGID_10_);}
	.st9{fill:url(#SVGID_11_);}
	.st10{fill:url(#SVGID_12_);}
	.st11{fill:url(#SVGID_13_);}
	.st12{fill:url(#SVGID_14_);}
	.st13{clip-path:url(#SVGID_16_);}
	.st14{fill:url(#SVGID_17_);}
	.st15{fill:url(#SVGID_18_);}
	.st16{fill:url(#SVGID_19_);}
	.st17{fill:url(#SVGID_20_);}
	.st18{fill:url(#SVGID_21_);}
	.st19{clip-path:url(#SVGID_23_);}
	.st20{fill:url(#SVGID_24_);}
	.st21{fill:url(#SVGID_25_);}
	.st22{fill:url(#SVGID_26_);}
	.st23{fill:url(#SVGID_27_);}
	.st24{fill:url(#SVGID_28_);}
	.st25{clip-path:url(#SVGID_30_);}
	.st26{fill:url(#SVGID_31_);}
	.st27{fill:url(#SVGID_32_);}
	.st28{fill:url(#SVGID_33_);}
	.st29{fill:url(#SVGID_34_);}
	.st30{fill:url(#SVGID_35_);}
	.st31{fill:#39BECA;}
</style>
<g>
	<g>
		<defs>
			<path id="SVGID_1_" d="M607.5,181.5c-51.6-90-150.8-141.6-254.1-132.3C211,62.4,103.9,184.9,109.8,327.8
				c6.3,144.8,124.9,259.2,269.8,260.4c146.8,0.8,268.5-113.6,276.9-260.1c2-35.3-2.8-70.6-14-104.1c-0.4-1.5,0.5-3,1.9-3.4
				c1.3-0.4,2.7,0.3,3.2,1.6C698,365.7,627,523.6,486.2,581.1c-142.7,58.2-305.9-5.8-371-145.5c-67.8-147.4-3.4-321.8,144-389.7
				C322.7,16.7,394.6,11,461.9,30.1c73.4,20.7,136,68.8,174.9,134.4c4.8,8.1,2.1,18.5-6,23.3s-18.5,2.1-23.3-6L607.5,181.5
				L607.5,181.5z"/>
		</defs>
		<clipPath id="SVGID_2_">
			<use xlink:href="#SVGID_1_"  style="overflow:visible;"/>
		</clipPath>
		<g class="st0">
			
				<linearGradient id="SVGID_3_" gradientUnits="userSpaceOnUse" x1="108.101" y1="430.6835" x2="158.0476" y2="697.2325" gradientTransform="matrix(0.9992 -3.921216e-02 -3.921216e-02 -0.9992 7.2259 857.3848)">
				<stop  offset="0" style="stop-color:#44D1B9"/>
				<stop  offset="1" style="stop-color:#40CABE"/>
			</linearGradient>
			<path class="st1" d="M138.8,426.1c-19.1-43.2-26.6-90.8-21.5-139.1c5.2-48.3,22.6-93.2,50.4-131.4L136,132.4
				c-31.8,43.7-51.8,95.2-57.7,150.4C72.4,338,81,392.6,102.9,442L138.8,426.1z"/>
			
				<linearGradient id="SVGID_4_" gradientUnits="userSpaceOnUse" x1="447.8493" y1="825.1309" x2="659.056" y2="646.3315" gradientTransform="matrix(0.9992 -3.921216e-02 -3.921216e-02 -0.9992 7.2259 857.3848)">
				<stop  offset="0" style="stop-color:#3DC4C4"/>
				<stop  offset="1" style="stop-color:#39BECA"/>
			</linearGradient>
			<path class="st2" d="M404.8,52c71.4,7.8,135.5,42.8,180.5,98.6c14.9,18.4,27.1,38.4,36.5,59.5l35.5-15.7
				c-10.8-24.1-24.8-47.1-41.8-68.2C564,62.4,490.6,22.3,408.9,13.4L404.8,52z"/>
			<g>
				
					<linearGradient id="SVGID_5_" gradientUnits="userSpaceOnUse" x1="172.151" y1="724.1226" x2="413.7117" y2="820.5251" gradientTransform="matrix(0.9992 -3.921216e-02 -3.921216e-02 -0.9992 7.2259 857.3848)">
					<stop  offset="0" style="stop-color:#40CABE"/>
					<stop  offset="1" style="stop-color:#3DC4C4"/>
				</linearGradient>
				<path class="st3" d="M166.8,159.4c13.4-18.2,29.1-34.8,47.2-49.3c44.4-35.8,97.7-55.9,154.3-58.1c12.7-0.5,25.7-0.1,38.5,1.3
					l4-37.7c-79.8-8.4-158.2,14.7-220.6,65c-20.6,16.6-38.7,35.6-54,56.5L166.8,159.4z"/>
			</g>
			
				<linearGradient id="SVGID_6_" gradientUnits="userSpaceOnUse" x1="335.4516" y1="234.8757" x2="121.2494" y2="406.4743" gradientTransform="matrix(0.9992 -3.921216e-02 -3.921216e-02 -0.9992 7.2259 857.3848)">
				<stop  offset="0" style="stop-color:#47D7B3"/>
				<stop  offset="1" style="stop-color:#44D1B9"/>
			</linearGradient>
			<path class="st4" d="M350.7,576.6c-69.8-7.6-132.4-41.8-176.4-96.3c-14.5-18-26.5-37.6-35.7-58.2L104,437.4
				c10.5,23.6,24.2,46,40.8,66.6c50.4,62.4,122,101.5,201.8,110.2L350.7,576.6z"/>
			<path class="st5" d="M654.8,193.4l-34.7,15.4c18.4,41.7,25.7,87.6,20.7,134.2c-5,46.6-21.8,89.9-48.6,126.8l30.6,22.3
				c30.7-42.1,50-91.8,55.7-145.1C684.3,293.7,675.9,241.1,654.8,193.4z"/>
			<g>
				
					<linearGradient id="SVGID_7_" gradientUnits="userSpaceOnUse" x1="364.1616" y1="231.6159" x2="620.6995" y2="332.3568" gradientTransform="matrix(0.9992 -3.921216e-02 -3.921216e-02 -0.9992 7.2259 857.3848)">
					<stop  offset="0" style="stop-color:#47D7B3"/>
					<stop  offset="1" style="stop-color:#4BDDAD"/>
				</linearGradient>
				<path class="st6" d="M593.7,469.2c-13.6,18.5-29.7,35.4-48,50.2c-45.2,36.5-99.6,57-157.2,59.2c-13,0.5-26.2,0.1-39.2-1.3
					l-4.1,38.4c14.9,1.6,30,2.1,44.8,1.5c66-2.6,128.2-26,179.9-67.7c21-17,39.4-36.3,55-57.5L593.7,469.2z"/>
			</g>
		</g>
	</g>
</g>
<g>
	<g>
		<defs>
			<path id="SVGID_8_" d="M584.8,243.8C547.7,133.2,430.4,71.1,318.1,102.6c-114.1,32.1-183,148.1-156.6,263.7
				c27,117.4,141.2,193,259.8,172c57.8-10.2,109.5-42.2,144.3-89.5c35.1-47.6,50.5-106.9,43.1-165.6c-0.1-1.5,1-2.8,2.5-3
				c1.4-0.1,2.6,0.8,2.9,2.2c13.4,92.2-28.2,183.7-106.5,234.2c-108.2,69.5-251.8,42.2-326.8-62.3
				c-75.8-106.2-55.2-253.1,46.9-334.4C331.6,38,481.6,51.6,568.9,151c21,24,37.3,51.7,48,81.7c3.2,8.9-1.5,18.6-10.3,21.7
				s-18.6-1.5-21.7-10.3l0,0L584.8,243.8L584.8,243.8z"/>
		</defs>
		<clipPath id="SVGID_9_">
			<use xlink:href="#SVGID_8_"  style="overflow:visible;"/>
		</clipPath>
		<g class="st7">
			
				<linearGradient id="SVGID_10_" gradientUnits="userSpaceOnUse" x1="92.3522" y1="434.3054" x2="133.767" y2="655.3229" gradientTransform="matrix(0.9892 0.1465 0.1465 -0.9892 -21.323 776.0118)">
				<stop  offset="0" style="stop-color:#44D1B9"/>
				<stop  offset="1" style="stop-color:#40CABE"/>
			</linearGradient>
			<path class="st8" d="M166.1,368.8c-8.9-38.1-7.8-78.1,3.8-116.6s32.7-72.5,61.3-99.3l-22.3-23.7c-32.6,30.7-56.8,69.6-70.1,113.7
				c-13.3,44.1-14.6,89.9-4.4,133.5L166.1,368.8z"/>
			
				<linearGradient id="SVGID_11_" gradientUnits="userSpaceOnUse" x1="373.485" y1="765.9269" x2="552.2076" y2="614.6274" gradientTransform="matrix(0.9892 0.1465 0.1465 -0.9892 -21.323 776.0118)">
				<stop  offset="0" style="stop-color:#3DC4C4"/>
				<stop  offset="1" style="stop-color:#39BECA"/>
			</linearGradient>
			<path class="st9" d="M440.3,104.8c54.9,17,85.1,58.3,122,112c11.1,16.2,19.5,34.9,24,53.5l42.6-12.6c-5.1-21.3-13-46.1-23.6-65.9
				c-32.2-60-92.5-101-157.7-120.8L440.3,104.8z"/>
			<g>
				
					<linearGradient id="SVGID_12_" gradientUnits="userSpaceOnUse" x1="145.3783" y1="677.7056" x2="345.6761" y2="757.6409" gradientTransform="matrix(0.9892 0.1465 0.1465 -0.9892 -21.323 776.0118)">
					<stop  offset="0" style="stop-color:#40CABE"/>
					<stop  offset="1" style="stop-color:#3DC4C4"/>
				</linearGradient>
				<path class="st10" d="M229.8,155.8c13.7-12.8,29.1-23.9,46-32.9c41.7-22.4,88.2-30.5,134.6-23.7c10.5,1.5,20.9,3.9,31.2,6.9
					l9.1-30.1C386.9,56.9,319.6,63.7,261,95.1c-19.4,10.4-37,23.1-52.7,37.7L229.8,155.8z"/>
			</g>
			
				<linearGradient id="SVGID_13_" gradientUnits="userSpaceOnUse" x1="280.8913" y1="272.0506" x2="103.2787" y2="414.3369" gradientTransform="matrix(0.9892 0.1465 0.1465 -0.9892 -21.323 776.0118)">
				<stop  offset="0" style="stop-color:#47D7B3"/>
				<stop  offset="1" style="stop-color:#44D1B9"/>
			</linearGradient>
			<path class="st11" d="M315.7,523.9C260,507,214.2,469.5,186.8,418.3c-9.1-16.9-15.8-34.7-20.1-52.9l-30.6,7.2
				c5,20.8,12.6,41.2,23,60.5c31.5,58.6,83.8,101.5,147.6,120.8L315.7,523.9z"/>
			<path class="st5" d="M627.4,252l-41.8,14.4c-1.3,37.9,13.5,74.6,2.3,111.8s-31.6,69.9-59.1,95.8l21.5,22.9
				c31.5-29.6,54.8-67.1,67.7-109.7C630.9,344.7,637.3,294.1,627.4,252z"/>
			<g>
				
					<linearGradient id="SVGID_14_" gradientUnits="userSpaceOnUse" x1="304.6021" y1="269.2985" x2="517.3187" y2="352.831" gradientTransform="matrix(0.9892 0.1465 0.1465 -0.9892 -21.323 776.0118)">
					<stop  offset="0" style="stop-color:#47D7B3"/>
					<stop  offset="1" style="stop-color:#4BDDAD"/>
				</linearGradient>
				<path class="st12" d="M530.1,473.7c-13.9,13-29.6,24.3-46.9,33.6c-42.4,22.8-89.9,31.1-137.2,24.1c-10.7-1.6-21.3-4-31.7-7.1
					l-9.2,30.7c11.9,3.6,24.1,6.3,36.3,8.1c54.2,8,108.4-1.5,157-27.6c19.7-10.6,37.7-23.5,53.6-38.4L530.1,473.7z"/>
			</g>
		</g>
	</g>
</g>
<g>
	<g>
		<defs>
			<path id="SVGID_15_" d="M548.3,291.5c-1.3-10.7-3.7-21.3-7-31.6c-3.4-10.3-7.7-20.3-12.9-29.8C517.9,211,503.9,194,487,180.2
				c-71.8-58.5-176.8-50.6-239,18c-30.4,33.6-46.8,77.5-45.7,122.8c2.8,99.1,85.4,177.2,184.5,174.4c19.9-0.6,39.6-4.4,58.2-11.4
				c2.7-1,5.5-1.9,8.1-3.1l7.9-3.6c1.3-0.6,2.6-1.2,3.9-1.8l3.8-2.1l7.6-4.2c9.7-6.2,19.3-12.8,27.7-20.8c4.3-3.9,8.4-7.9,12.3-12.2
				l1.5-1.6l1.4-1.7l2.8-3.3l2.8-3.3l1.4-1.7c0.5-0.6,0.8-1.2,1.3-1.8c3.3-4.8,6.9-9.4,9.7-14.5l2.3-3.7c0.8-1.2,1.5-2.5,2.2-3.8
				l4-7.8c1.4-2.5,2.5-5.3,3.6-8s2.4-5.3,3.3-8.1l2.8-8.3c0.4-1.4,1-2.7,1.3-4.2l1.1-4.2c0.7-2.8,1.5-5.6,2.2-8.5l1.6-8.6
				c0.3-1.4,0.6-2.9,0.8-4.3l0.5-4.4l1-8.7v-0.2c0.1-1.5,1.5-2.6,3-2.5s2.6,1.5,2.5,3l0,0l-0.8,9l-0.4,4.5c-0.2,1.5-0.5,3-0.7,4.5
				l-1.4,8.9c-0.6,3-1.4,5.9-2,8.8l-1,4.4c-0.3,1.5-0.9,2.9-1.3,4.3l-2.7,8.7c-1,2.9-2.2,5.6-3.3,8.5s-2.2,5.7-3.5,8.3l-3.9,8.2
				c-0.6,1.4-1.4,2.7-2.2,4l-2.3,3.9c-2.9,5.4-6.4,10.3-9.8,15.3c-0.4,0.6-0.8,1.3-1.3,1.9l-1.4,1.8l-2.8,3.6l-2.9,3.5l-1.4,1.8
				l-1.5,1.7c-4,4.6-8.2,9-12.6,13.1c-8.7,8.6-18.5,15.8-28.6,22.6l-7.8,4.7l-4,2.3c-1.3,0.7-2.7,1.4-4.1,2l-8.2,4
				c-2.8,1.3-5.6,2.3-8.5,3.5c-22.7,9.3-47.1,14-71.7,14c-49.9-0.1-97.9-19.3-134-53.7c-78.7-75.8-81-200.9-5.3-279.6
				c15-15.6,32.6-28.7,51.8-38.6c95.5-49.2,212.8-14.8,266.7,78.1c13,22.4,21.7,47.1,25.5,72.7l0,0c1.4,9.3-5,17.9-14.3,19.3
				c-9.3,1.4-17.9-5-19.3-14.3L548.3,291.5z"/>
		</defs>
		<clipPath id="SVGID_16_">
			<use xlink:href="#SVGID_15_"  style="overflow:visible;"/>
		</clipPath>
		<g class="st13">
			
				<linearGradient id="SVGID_17_" gradientUnits="userSpaceOnUse" x1="71.3374" y1="420.4919" x2="105.4162" y2="602.3598" gradientTransform="matrix(0.939 0.344 0.344 -0.939 -34.6979 682.43)">
				<stop  offset="0" style="stop-color:#44D1B9"/>
				<stop  offset="1" style="stop-color:#40CABE"/>
			</linearGradient>
			<path class="st14" d="M206.7,323.5c-0.8-32.2,9.1-58.8,24.9-87.9c15.8-29.1,32.6-46,60-62.9l-18.7-35.9
				c-31.4,19.3-57.4,46.6-75.5,79.9s-26.8,70-25.8,106.8H206.7z"/>
			
				<linearGradient id="SVGID_18_" gradientUnits="userSpaceOnUse" x1="294.4003" y1="688.5278" x2="441.465" y2="564.0285" gradientTransform="matrix(0.939 0.344 0.344 -0.939 -34.6979 682.43)">
				<stop  offset="0" style="stop-color:#3DC4C4"/>
				<stop  offset="1" style="stop-color:#39BECA"/>
			</linearGradient>
			<path class="st15" d="M452.7,166.1c41.4,22.8,65.2,52.9,86,102.3c6.3,14.9-0.5,28.1,0,43.8l51.1-1.7c-0.5-18-2.8-39.3-8-57.1
				c-15.9-53.7-57.6-96.8-106.9-123.6L452.7,166.1z"/>
			<g>
				
					<linearGradient id="SVGID_19_" gradientUnits="userSpaceOnUse" x1="109.8643" y1="614.6235" x2="278.0403" y2="681.7396" gradientTransform="matrix(0.939 0.344 0.344 -0.939 -34.6979 682.43)">
					<stop  offset="0" style="stop-color:#40CABE"/>
					<stop  offset="1" style="stop-color:#3DC4C4"/>
				</linearGradient>
				<path class="st16" d="M291.6,172.7c13.1-8,21.1-13.1,36.3-17.6c37.3-11.1,68.3-8.3,104.5,4.9c8.2,3,17.4,4.6,25.1,8.8l19.1-34.4
					c-48.2-26-103.6-31.8-156.1-16.2c-17.3,5.1-38.1,4.8-53.1,14L291.6,172.7z"/>
			</g>
			
				<linearGradient id="SVGID_20_" gradientUnits="userSpaceOnUse" x1="227.9315" y1="287.3483" x2="78.6917" y2="406.905" gradientTransform="matrix(0.939 0.344 0.344 -0.939 -34.6979 682.43)">
				<stop  offset="0" style="stop-color:#47D7B3"/>
				<stop  offset="1" style="stop-color:#44D1B9"/>
			</linearGradient>
			<path class="st17" d="M295.8,468.1c-42-22.9-68.6-60-82.2-105.8c-4.5-15.1-6.5-30.8-6.9-46.2l-33.2,4.9
				c0.5,17.6,3.3,35.3,8.5,52.6c15.6,52.5,49.3,101.6,97.4,127.8L295.8,468.1z"/>
			<path class="st5" d="M589.6,305.6l-36,4.6c-7.4,30.3-1.5,62.4-16.8,90.4c-15.2,28.1-37.1,51.1-63.6,67.4l13.5,22
				c30.3-18.6,55.4-44.9,72.8-77.1C576.9,380.9,590.5,341.2,589.6,305.6z"/>
			<g>
				
					<linearGradient id="SVGID_21_" gradientUnits="userSpaceOnUse" x1="241.8639" y1="286.7298" x2="416.9012" y2="355.4659" gradientTransform="matrix(0.939 0.344 0.344 -0.939 -34.6979 682.43)">
					<stop  offset="0" style="stop-color:#47D7B3"/>
					<stop  offset="1" style="stop-color:#4BDDAD"/>
				</linearGradient>
				<path class="st18" d="M474.2,468.1c-13.4,8.2-27.9,14.6-43.4,19.2c-38,11.3-77.6,7.5-114.5-6.1c-8.3-3-16.5-7.4-24.4-11.7
					l-12.6,26.4c9,4.9,18.4,9.1,27.9,12.6c42.3,15.5,87.6,16.9,131.1,4c17.7-5.2,34.3-12.7,49.6-22L474.2,468.1z"/>
			</g>
		</g>
	</g>
</g>
<g>
	<g>
		<defs>
			<path id="SVGID_22_" d="M496.3,274.3c-9.4-29.4-29.5-54.2-56.3-69.5c-27.1-15.6-59.1-20.5-89.7-13.8c-15.3,3.4-29.9,9.5-43,18.1
				c-13.2,8.7-24.7,19.7-33.8,32.6c-18.7,26.2-26.9,58.5-23.1,90.5c3.9,32.4,19.6,62.2,44.2,83.7c25,21.7,57.1,33.3,90.1,32.7
				c16.6-0.4,32.9-3.7,48.3-10c31.2-12.8,56.6-36.7,71.1-67.2c7.2-15.3,11.6-31.7,13-48.5l0,0c0.2-1.5,1.5-2.6,3-2.4
				c1.4,0.2,2.4,1.4,2.4,2.8c-5,80.8-74.5,142.3-155.2,137.3c-49.4-3-94-30.8-118.4-73.8c-38.4-67.6-19.3-153.3,44.2-198.2
				c47.6-33.7,110.1-37.7,161.6-10.3c17,9,32.2,21,44.8,35.5c12.7,14.6,22.5,31.4,29.1,49.6v0.1c3.2,8.8-1.4,18.6-10.2,21.8
				s-18.6-1.4-21.8-10.2C496.4,274.7,496.3,274.5,496.3,274.3z"/>
		</defs>
		<clipPath id="SVGID_23_">
			<use xlink:href="#SVGID_22_"  style="overflow:visible;"/>
		</clipPath>
		<g class="st19">
			
				<linearGradient id="SVGID_24_" gradientUnits="userSpaceOnUse" x1="140.9123" y1="448.8786" x2="167.2731" y2="589.5574" gradientTransform="matrix(0.9645 0.2642 0.2642 -0.9645 -24.6348 722.8923)">
				<stop  offset="0" style="stop-color:#44D1B9"/>
				<stop  offset="1" style="stop-color:#40CABE"/>
			</linearGradient>
			<path class="st20" d="M256,334.3c-2.5-22.7,1-45.7,10.4-67.2s24-39.7,42.4-53.2l-19.5-29.6c-21,15.5-42.3,44.6-53,69.2
				c-10.8,24.6-12.5,57-9.6,83L256,334.3z"/>
			
				<linearGradient id="SVGID_25_" gradientUnits="userSpaceOnUse" x1="310.7563" y1="651.3249" x2="418.2313" y2="560.3408" gradientTransform="matrix(0.9645 0.2642 0.2642 -0.9645 -24.6348 722.8923)">
				<stop  offset="0" style="stop-color:#3DC4C4"/>
				<stop  offset="1" style="stop-color:#39BECA"/>
			</linearGradient>
			<path class="st21" d="M430.6,202.2c31.8,14,46.4,38.1,59,70.3c4.2,10.7,19.1,21.7,20.4,32.8l18.6-2.1
				c-1.4-12.7,8.7-32.9,3.9-45.1c-14.4-37-48.9-72.6-85.2-88.6L430.6,202.2z"/>
			<g>
				
					<linearGradient id="SVGID_26_" gradientUnits="userSpaceOnUse" x1="169.7303" y1="597.6154" x2="299.5282" y2="649.4155" gradientTransform="matrix(0.9645 0.2642 0.2642 -0.9645 -24.6348 722.8923)">
					<stop  offset="0" style="stop-color:#40CABE"/>
					<stop  offset="1" style="stop-color:#3DC4C4"/>
				</linearGradient>
				<path class="st22" d="M307.7,215.5c8.8-6.4,18.5-11.8,28.9-15.8c25.7-10,53.2-11.5,79.6-4.3c5.9,1.6,11.8,5.8,17.5,8.2
					l13.6-34.2c-35.6-15.5-83.9-19.1-120-5c-11.9,4.7-30.4,14.1-40.5,21.5L307.7,215.5z"/>
			</g>
			
				<linearGradient id="SVGID_27_" gradientUnits="userSpaceOnUse" x1="256.388" y1="352.8635" x2="147.0486" y2="440.4559" gradientTransform="matrix(0.9645 0.2642 0.2642 -0.9645 -24.6348 722.8923)">
				<stop  offset="0" style="stop-color:#47D7B3"/>
				<stop  offset="1" style="stop-color:#44D1B9"/>
			</linearGradient>
			<path class="st23" d="M331.6,434.5c-31-13.7-54.9-38.6-67.2-70.1c-4.1-10.4-6.7-21.2-7.9-32l-30.1,2c1.4,12.4,6,27.5,10.7,39.5
				c14.1,36.1,51.7,63.2,87.2,78.9L331.6,434.5z"/>
			<path class="st5" d="M527.6,302.4l-18.2,2c2.4,21.9-0.9,44.1-10,64.8s-23.2,38.3-40.9,51.3l10.9,14.8
				c20.3-14.9,36.4-35,46.8-58.7C526.5,352.9,530.4,327.4,527.6,302.4z"/>
			<g>
				
					<linearGradient id="SVGID_28_" gradientUnits="userSpaceOnUse" x1="271.3987" y1="354.7664" x2="396.1775" y2="403.7663" gradientTransform="matrix(0.9645 0.2642 0.2642 -0.9645 -24.6348 722.8923)">
					<stop  offset="0" style="stop-color:#47D7B3"/>
					<stop  offset="1" style="stop-color:#4BDDAD"/>
				</linearGradient>
				<path class="st24" d="M459.2,420.5c-9,6.6-18.8,12-29.5,16.1c-26.2,10.2-54.2,11.7-81,4.4c-6.1-1.7-12.1-3.8-18.8-5.9l-7.5,17.1
					c7.6,2.5,14.4,4.9,21.4,6.8c30.8,8.4,62.8,6.7,92.8-5c12.2-4.7,23.5-11,33.7-18.5L459.2,420.5z"/>
			</g>
		</g>
	</g>
</g>
<g>
	<g>
		<defs>
			<path id="SVGID_29_" d="M426,253.5c-13.4-10.9-30.1-17-47.4-17.4c-17.7-0.3-35,5.2-49.2,15.8c-14.5,10.9-24.9,26.2-29.6,43.7
				c-4.8,17.9-3.6,36.8,3.6,53.9c7.3,17.4,20.3,31.8,36.7,41c16.8,9.4,36.4,12.9,55.4,9.9c19.4-3.1,37.3-12.5,50.8-26.8
				c13.7-14.7,22.1-33.5,24-53.5l0,0c0.2-1.5,1.5-2.6,3-2.4c1.4,0.2,2.4,1.4,2.4,2.8c-1.2,33-19,63.2-47.4,80.2
				c-29.1,17.6-65.1,19.1-95.6,4.2c-20.6-10-37.2-26.6-47.3-47.2c-10.2-20.9-13.2-44.6-8.3-67.4c4.9-23.2,17.4-44,35.5-59.3
				c18.4-15.5,41.5-24.3,65.6-25.2c24.4-0.9,48.5,6.4,68.3,20.8l0.2,0.2c7.6,5.5,9.3,16.2,3.8,23.8s-16.2,9.3-23.8,3.8
				C426.5,253.9,426.2,253.7,426,253.5z"/>
		</defs>
		<clipPath id="SVGID_30_">
			<use xlink:href="#SVGID_29_"  style="overflow:visible;"/>
		</clipPath>
		<g class="st25">
			
				<linearGradient id="SVGID_31_" gradientUnits="userSpaceOnUse" x1="381.7362" y1="492.8987" x2="399.1025" y2="585.5771" gradientTransform="matrix(0.9616 -0.2744 -0.2744 -0.9616 64.7523 951.5479)">
				<stop  offset="0" style="stop-color:#44D1B9"/>
				<stop  offset="1" style="stop-color:#40CABE"/>
			</linearGradient>
			<path class="st26" d="M318.2,362.8c-9.7-12.6-16.7-19.5-18.9-35.8s3.3-27.3,9.3-42l-29.1-12.9c-7,16.9-11.9,38.1-9.5,56.7
				c2.5,18.6,16.9,35.8,28,50.2L318.2,362.8z"/>
			
				<linearGradient id="SVGID_32_" gradientUnits="userSpaceOnUse" x1="489.2162" y1="632.267" x2="571.4597" y2="562.6429" gradientTransform="matrix(0.9616 -0.2744 -0.2744 -0.9616 64.7523 951.5479)">
				<stop  offset="0" style="stop-color:#3DC4C4"/>
				<stop  offset="1" style="stop-color:#39BECA"/>
			</linearGradient>
			<path class="st27" d="M366.7,241.7c24-3.2,34.9,0.4,54.2,15.1c6.4,4.9,12.2,7.5,17,13.7l35.4-28.8c-5.5-7.1-25-18.9-32.3-24.5
				c-22-16.8-53-20.1-80.5-16.5L366.7,241.7z"/>
			<g>
				
					<linearGradient id="SVGID_33_" gradientUnits="userSpaceOnUse" x1="398.8286" y1="591.0945" x2="487.3068" y2="626.4046" gradientTransform="matrix(0.9616 -0.2744 -0.2744 -0.9616 64.7523 951.5479)">
					<stop  offset="0" style="stop-color:#40CABE"/>
					<stop  offset="1" style="stop-color:#3DC4C4"/>
				</linearGradient>
				<path class="st28" d="M308.6,285.1c2.9-7,3.8-8.4,8.6-14.6c11.7-15.3,18.4-21.2,36.8-26.4c4.1-1.2,10.8-2.1,15.1-2.6l-8.5-40.7
					c-26.9,3.6-52.7,20.1-69.2,41.6c-5.4,7.1-11.6,21.3-15,29.3L308.6,285.1z"/>
			</g>
			
				<linearGradient id="SVGID_34_" gradientUnits="userSpaceOnUse" x1="459.9619" y1="430.6733" x2="387.6618" y2="488.5933" gradientTransform="matrix(0.9616 -0.2744 -0.2744 -0.9616 64.7523 951.5479)">
				<stop  offset="0" style="stop-color:#47D7B3"/>
				<stop  offset="1" style="stop-color:#44D1B9"/>
			</linearGradient>
			<path class="st29" d="M390.2,395.8c-23.5,3.1-40.9-5.6-59.7-20c-6.2-4.7-7.6-6.9-12.3-13l-20,14.7c5.3,6.9,11.6,13.1,18.7,18.6
				c21.5,16.5,48.1,23.6,75,20L390.2,395.8z"/>
			<path class="st5" d="M459.3,253.5l-10.1,7.8c9.4,12.2,15.4,26.7,17.5,42.4s0,31.2-5.8,45.5l11.8,4.9c6.7-16.3,9.1-34.1,6.7-52
				C477,284,470,267.5,459.3,253.5z"/>
			<g>
				
					<linearGradient id="SVGID_35_" gradientUnits="userSpaceOnUse" x1="465.4804" y1="428.7415" x2="552.0701" y2="462.7447" gradientTransform="matrix(0.9616 -0.2744 -0.2744 -0.9616 64.7523 951.5479)">
					<stop  offset="0" style="stop-color:#47D7B3"/>
					<stop  offset="1" style="stop-color:#4BDDAD"/>
				</linearGradient>
				<path class="st30" d="M461.2,348.8c-3,7.2-8.4,11.4-13.3,17.7c-11.9,15.6-28.8,18.2-47.5,23.6c-4.2,1.2-6.4,5.1-10.8,5.7
					l1.7,20.9c5-0.7,10-1.7,14.8-3.1c21.4-6.1,40-18.8,53.6-36.6c5.5-7.2,10-15.1,13.4-23.3L461.2,348.8z"/>
			</g>
		</g>
	</g>
</g>
<path class="st31" d="M94.1,739.7c-11.2,18.7-35.5,24.8-54.3,13.5c-11.9-7.1-19.2-20-19.2-33.9c0-21.4,17.4-40,39.5-40
	c13.8,0.1,26.6,7.4,33.8,19.2l-9.1,5.1c-5.2-8.8-14.6-14.2-24.8-14.2c-16.3,0-28.3,14.2-28.3,29.9c0,16,12.3,29.4,28.8,29.4
	c10.2,0.1,19.6-5.4,24.6-14.2L94.1,739.7z"/>
<path class="st31" d="M146.4,758.9c-21.8-0.2-39.4-17.8-39.5-39.5c0-21.4,17.4-40,39.4-40c21.8,0,39.8,18.2,39.8,39.8
	C185.9,741.1,168.3,758.7,146.4,758.9z M175.1,719.1c0-16.3-12.6-29.6-28.6-29.6c-16.5,0-28.5,14.1-28.5,29.9
	c0,16,12.3,29.4,28.6,29.4C163.2,748.8,175.1,734.7,175.1,719.1z"/>
<path class="st31" d="M234.7,757.8c-2.7,0.7-5.4,1.1-8.2,1.1c-10.7,0-18.1-6.9-18.1-20.5v-100h11.2v94.7c0,11.4,2.4,15.5,10.6,15.5
	c1.5,0,3-0.1,4.5-0.3V757.8z"/>
<path class="st31" d="M277.6,757.8c-2.7,0.7-5.4,1.1-8.2,1.1c-10.7,0-18.1-6.9-18.1-20.5v-100h11.3v94.7c0,11.4,2.4,15.5,10.6,15.5
	c1.5,0.1,3,0,4.4-0.2V757.8z"/>
<path class="st31" d="M299.2,723.4c1.8,14.1,13.4,25.4,28.2,25.4c9.4-0.1,18.2-4.6,23.7-12.3l8.3,5.9c-7.3,10.3-19.2,16.5-31.8,16.5
	c-21.9-0.1-39.6-17.8-39.7-39.7c0-21.3,16.8-39.8,39-39.8c22.1,0,38.9,18.4,38.9,39.8v4.2H299.2z M354.2,713.3
	c-2.2-13.3-12.8-23.8-27.4-23.8s-25,10.6-27.5,23.8H354.2z"/>
<path class="st31" d="M454.4,739.7c-11.2,18.7-35.5,24.8-54.3,13.5c-11.9-7.1-19.2-20-19.2-33.9c0-21.4,17.4-40,39.5-40
	c13.8,0.1,26.6,7.4,33.8,19.2l-9.1,5.1c-5.2-8.8-14.6-14.2-24.8-14.2c-16.3,0-28.3,14.2-28.3,29.9c0,16,12.3,29.4,28.8,29.4
	c10.2,0.1,19.6-5.4,24.6-14.2L454.4,739.7z"/>
<path class="st31" d="M504.8,757.3c-3.3,1.1-6.8,1.6-10.2,1.6c-17.1,0-20.2-10.9-20.2-20.5v-47.5h-12v-10.1h12V655h11.2v25.8h21.1
	v10.1h-21.1v42.2c0,11.4,2.4,15.5,10.6,15.5c2.9,0,5.9-0.5,8.6-1.4L504.8,757.3z"/>
<path class="st31" d="M578.9,680.8h11.2v45.4c0,23.8-12.3,32.6-33.4,32.6s-33.4-8.8-33.4-32.6v-45.4h11.2V723
	c0,15.7,4.2,25.8,22.2,25.8s22.2-10.1,22.2-25.8V680.8z"/>
<path class="st31" d="M629,756.8h-11.2v-76H629v12.5c7.4-12.2,15-13.9,29.8-13.9v10.4c-25.1,0-29.8,13.4-29.8,26.6V756.8z"/>
<path class="st31" d="M677.3,723.4c1.8,14.1,13.4,25.4,28.2,25.4c9.4-0.1,18.2-4.6,23.7-12.3l8.3,5.9c-7.3,10.3-19.2,16.5-31.8,16.5
	c-21.9-0.1-39.6-17.8-39.7-39.7c0-21.3,16.8-39.8,39-39.8c22.1,0,38.9,18.4,38.9,39.8v4.2H677.3z M732.3,713.3
	c-2.2-13.3-12.8-23.8-27.4-23.8s-25,10.6-27.5,23.8H732.3z"/>
</svg>
