<svg width="0" height="0" class="hidden">
    <symbol viewBox="0 0 23 13" xmlns="http://www.w3.org/2000/svg" id="caret_up">
      <path
        d="M0.939312 12.4142C0.353531 11.8284 0.353541 10.8786 0.939333 10.2928L10.2929 0.939483C10.8787 0.353706 11.8284 0.353711 12.4142 0.939493L21.7675 10.2929C22.3533 10.8786 22.3533 11.8284 21.7675 12.4142C21.1818 13 20.232 13 19.6462 12.4142L11.3535 4.12146L3.06063 12.4142C2.47484 13 1.52509 13 0.939312 12.4142Z"
      />
    </symbol>


  

  <symbol>
  <svg viewBox="0 0 56 56" id="playButton"
    xmlns="http://www.w3.org/2000/svg">
    <circle cx="28" cy="28" fill="none" r="27" stroke-miterlimit="10" stroke-width="2"/>
    <path d="m23 16.74v22.33a.8.8 0 0 0 1.37.56l12-12a.79.79 0 0 0 0-1.17l-12-10.31a.8.8 0 0 0 -1.37.59z"/>
  </svg>
  </symbol>
</svg>